<?xml version="1.0" encoding="utf-8"?>
<!-- Generator: Adobe Illustrator 18.0.0, SVG Export Plug-In . SVG Version: 6.00 Build 0)  -->
<!DOCTYPE svg PUBLIC "-//W3C//DTD SVG 1.1//EN" "http://www.w3.org/Graphics/SVG/1.1/DTD/svg11.dtd">
<svg version="1.1" id="Calque_3" xmlns="http://www.w3.org/2000/svg" xmlns:xlink="http://www.w3.org/1999/xlink" x="0px" y="0px"
	 viewBox="0 0 449.8 168.7" enable-background="new 0 0 449.8 168.7" xml:space="preserve">
<g opacity="0.5">
	<path fill="#FFFFFF" d="M10,7.9c0,4.6-1.7,7.2-4.7,7.2c-2.7,0-4.5-2.5-4.5-7c0-4.6,2-7.1,4.7-7.1C8.4,1,10,3.6,10,7.9z M2.6,8.1
		c0,3.5,1.1,5.6,2.8,5.6c1.9,0,2.8-2.2,2.8-5.7c0-3.4-0.9-5.6-2.8-5.6C3.8,2.5,2.6,4.4,2.6,8.1z"/>
	<path fill="#FFFFFF" d="M15.7,3L15.7,3l-2.4,1.3L13,2.9l3-1.6h1.6v13.6h-1.8V3z"/>
	<path fill="#FFFFFF" d="M31.6,7.9c0,4.6-1.7,7.2-4.7,7.2c-2.7,0-4.5-2.5-4.5-7c0-4.6,2-7.1,4.7-7.1C29.9,1,31.6,3.6,31.6,7.9z
		 M24.1,8.1c0,3.5,1.1,5.6,2.8,5.6c1.9,0,2.8-2.2,2.8-5.7c0-3.4-0.9-5.6-2.8-5.6C25.3,2.5,24.1,4.4,24.1,8.1z"/>
	<path fill="#FFFFFF" d="M37.3,3L37.3,3l-2.4,1.3l-0.4-1.4l3-1.6h1.6v13.6h-1.8V3z"/>
	<path fill="#FFFFFF" d="M53.1,7.9c0,4.6-1.7,7.2-4.7,7.2c-2.7,0-4.5-2.5-4.5-7c0-4.6,2-7.1,4.7-7.1C51.5,1,53.1,3.6,53.1,7.9z
		 M45.7,8.1c0,3.5,1.1,5.6,2.8,5.6c1.9,0,2.8-2.2,2.8-5.7c0-3.4-0.9-5.6-2.8-5.6C46.9,2.5,45.7,4.4,45.7,8.1z"/>
	<path fill="#FFFFFF" d="M63.9,7.9c0,4.6-1.7,7.2-4.7,7.2c-2.7,0-4.5-2.5-4.5-7c0-4.6,2-7.1,4.7-7.1C62.2,1,63.9,3.6,63.9,7.9z
		 M56.5,8.1c0,3.5,1.1,5.6,2.8,5.6c1.9,0,2.8-2.2,2.8-5.7c0-3.4-0.9-5.6-2.8-5.6C57.6,2.5,56.5,4.4,56.5,8.1z"/>
	<path fill="#FFFFFF" d="M69.6,3L69.6,3l-2.4,1.3l-0.4-1.4l3-1.6h1.6v13.6h-1.8V3z"/>
	<path fill="#FFFFFF" d="M80.4,3L80.4,3l-2.4,1.3l-0.4-1.4l3-1.6h1.6v13.6h-1.8V3z"/>
	<path fill="#FFFFFF" d="M100.6,7.9c0,4.6-1.7,7.2-4.7,7.2c-2.7,0-4.5-2.5-4.5-7c0-4.6,2-7.1,4.7-7.1C99,1,100.6,3.6,100.6,7.9z
		 M93.2,8.1c0,3.5,1.1,5.6,2.8,5.6c1.9,0,2.8-2.2,2.8-5.7c0-3.4-0.9-5.6-2.8-5.6C94.4,2.5,93.2,4.4,93.2,8.1z"/>
	<path fill="#FFFFFF" d="M106.4,3L106.4,3l-2.4,1.3l-0.4-1.4l3-1.6h1.6v13.6h-1.8V3z"/>
	<path fill="#FFFFFF" d="M117.1,3L117.1,3l-2.4,1.3l-0.4-1.4l3-1.6h1.6v13.6h-1.8V3z"/>
	<path fill="#FFFFFF" d="M133,7.9c0,4.6-1.7,7.2-4.7,7.2c-2.7,0-4.5-2.5-4.5-7c0-4.6,2-7.1,4.7-7.1C131.3,1,133,3.6,133,7.9z
		 M125.6,8.1c0,3.5,1.1,5.6,2.8,5.6c1.9,0,2.8-2.2,2.8-5.7c0-3.4-0.9-5.6-2.8-5.6C126.7,2.5,125.6,4.4,125.6,8.1z"/>
	<path fill="#FFFFFF" d="M138.7,3L138.7,3l-2.4,1.3l-0.4-1.4l3-1.6h1.6v13.6h-1.8V3z"/>
	<path fill="#FFFFFF" d="M149.4,3L149.4,3L147,4.3l-0.4-1.4l3-1.6h1.6v13.6h-1.8V3z"/>
	<path fill="#FFFFFF" d="M160.2,3L160.2,3l-2.4,1.3l-0.4-1.4l3-1.6h1.6v13.6h-1.8V3z"/>
	<path fill="#FFFFFF" d="M171,3L171,3l-2.4,1.3l-0.4-1.4l3-1.6h1.6v13.6H171V3z"/>
	<path fill="#FFFFFF" d="M191.3,7.9c0,4.6-1.7,7.2-4.7,7.2c-2.7,0-4.5-2.5-4.5-7c0-4.6,2-7.1,4.7-7.1C189.6,1,191.3,3.6,191.3,7.9z
		 M183.9,8.1c0,3.5,1.1,5.6,2.8,5.6c1.9,0,2.8-2.2,2.8-5.7c0-3.4-0.9-5.6-2.8-5.6C185,2.5,183.9,4.4,183.9,8.1z"/>
	<path fill="#FFFFFF" d="M197,3L197,3l-2.4,1.3l-0.4-1.4l3-1.6h1.6v13.6H197V3z"/>
	<path fill="#FFFFFF" d="M207.8,3L207.8,3l-2.4,1.3L205,2.9l3-1.6h1.6v13.6h-1.8V3z"/>
	<path fill="#FFFFFF" d="M218.5,3L218.5,3l-2.4,1.3l-0.4-1.4l3-1.6h1.6v13.6h-1.8V3z"/>
	<path fill="#FFFFFF" d="M234.4,7.9c0,4.6-1.7,7.2-4.7,7.2c-2.7,0-4.5-2.5-4.5-7c0-4.6,2-7.1,4.7-7.1C232.7,1,234.4,3.6,234.4,7.9z
		 M227,8.1c0,3.5,1.1,5.6,2.8,5.6c1.9,0,2.8-2.2,2.8-5.7c0-3.4-0.9-5.6-2.8-5.6C228.1,2.5,227,4.4,227,8.1z"/>
	<path fill="#FFFFFF" d="M245.1,7.9c0,4.6-1.7,7.2-4.7,7.2c-2.7,0-4.5-2.5-4.5-7c0-4.6,2-7.1,4.7-7.1C243.5,1,245.1,3.6,245.1,7.9z
		 M237.7,8.1c0,3.5,1.1,5.6,2.8,5.6c1.9,0,2.8-2.2,2.8-5.7c0-3.4-0.9-5.6-2.8-5.6C238.9,2.5,237.7,4.4,237.7,8.1z"/>
	<path fill="#FFFFFF" d="M250.9,3L250.9,3l-2.4,1.3l-0.4-1.4l3-1.6h1.6v13.6h-1.8V3z"/>
	<path fill="#FFFFFF" d="M266.7,7.9c0,4.6-1.7,7.2-4.7,7.2c-2.7,0-4.5-2.5-4.5-7c0-4.6,2-7.1,4.7-7.1C265,1,266.7,3.6,266.7,7.9z
		 M259.3,8.1c0,3.5,1.1,5.6,2.8,5.6c1.9,0,2.8-2.2,2.8-5.7c0-3.4-0.9-5.6-2.8-5.6C260.4,2.5,259.3,4.4,259.3,8.1z"/>
	<path fill="#FFFFFF" d="M281.9,7.9c0,4.6-1.7,7.2-4.7,7.2c-2.7,0-4.5-2.5-4.5-7c0-4.6,2-7.1,4.7-7.1C280.3,1,281.9,3.6,281.9,7.9z
		 M274.5,8.1c0,3.5,1.1,5.6,2.8,5.6c1.9,0,2.8-2.2,2.8-5.7c0-3.4-0.9-5.6-2.8-5.6C275.7,2.5,274.5,4.4,274.5,8.1z"/>
	<path fill="#FFFFFF" d="M287.6,3L287.6,3l-2.4,1.3l-0.4-1.4l3-1.6h1.6v13.6h-1.8V3z"/>
	<path fill="#FFFFFF" d="M298.4,3L298.4,3L296,4.3l-0.4-1.4l3-1.6h1.6v13.6h-1.8V3z"/>
	<path fill="#FFFFFF" d="M309.2,3L309.2,3l-2.4,1.3l-0.4-1.4l3-1.6h1.6v13.6h-1.8V3z"/>
	<path fill="#FFFFFF" d="M325,7.9c0,4.6-1.7,7.2-4.7,7.2c-2.7,0-4.5-2.5-4.5-7c0-4.6,2-7.1,4.7-7.1C323.4,1,325,3.6,325,7.9z
		 M317.6,8.1c0,3.5,1.1,5.6,2.8,5.6c1.9,0,2.8-2.2,2.8-5.7c0-3.4-0.9-5.6-2.8-5.6C318.8,2.5,317.6,4.4,317.6,8.1z"/>
	<path fill="#FFFFFF" d="M335.8,7.9c0,4.6-1.7,7.2-4.7,7.2c-2.7,0-4.5-2.5-4.5-7c0-4.6,2-7.1,4.7-7.1C334.1,1,335.8,3.6,335.8,7.9z
		 M328.4,8.1c0,3.5,1.1,5.6,2.8,5.6c1.9,0,2.8-2.2,2.8-5.7c0-3.4-0.9-5.6-2.8-5.6C329.5,2.5,328.4,4.4,328.4,8.1z"/>
	<path fill="#FFFFFF" d="M341.5,3L341.5,3l-2.4,1.3l-0.4-1.4l3-1.6h1.6v13.6h-1.8V3z"/>
	<path fill="#FFFFFF" d="M357.3,7.9c0,4.6-1.7,7.2-4.7,7.2c-2.7,0-4.5-2.5-4.5-7c0-4.6,2-7.1,4.7-7.1C355.7,1,357.3,3.6,357.3,7.9z
		 M349.9,8.1c0,3.5,1.1,5.6,2.8,5.6c1.9,0,2.8-2.2,2.8-5.7c0-3.4-0.9-5.6-2.8-5.6C351.1,2.5,349.9,4.4,349.9,8.1z"/>
	<path fill="#FFFFFF" d="M372.5,7.9c0,4.6-1.7,7.2-4.7,7.2c-2.7,0-4.5-2.5-4.5-7c0-4.6,2-7.1,4.7-7.1C370.9,1,372.5,3.6,372.5,7.9z
		 M365.1,8.1c0,3.5,1.1,5.6,2.8,5.6c1.9,0,2.8-2.2,2.8-5.7c0-3.4-0.9-5.6-2.8-5.6C366.3,2.5,365.1,4.4,365.1,8.1z"/>
	<path fill="#FFFFFF" d="M378.3,3L378.3,3l-2.4,1.3l-0.4-1.4l3-1.6h1.6v13.6h-1.8V3z"/>
	<path fill="#FFFFFF" d="M389,3L389,3l-2.4,1.3l-0.4-1.4l3-1.6h1.6v13.6H389V3z"/>
	<path fill="#FFFFFF" d="M399.8,3L399.8,3l-2.4,1.3L397,2.9l3-1.6h1.6v13.6h-1.8V3z"/>
	<path fill="#FFFFFF" d="M410.6,3L410.6,3l-2.4,1.3l-0.4-1.4l3-1.6h1.6v13.6h-1.8V3z"/>
	<path fill="#FFFFFF" d="M426.4,7.9c0,4.6-1.7,7.2-4.7,7.2c-2.7,0-4.5-2.5-4.5-7c0-4.6,2-7.1,4.7-7.1C424.8,1,426.4,3.6,426.4,7.9z
		 M419,8.1c0,3.5,1.1,5.6,2.8,5.6c1.9,0,2.8-2.2,2.8-5.7c0-3.4-0.9-5.6-2.8-5.6C420.2,2.5,419,4.4,419,8.1z"/>
	<path fill="#FFFFFF" d="M437.2,7.9c0,4.6-1.7,7.2-4.7,7.2c-2.7,0-4.5-2.5-4.5-7c0-4.6,2-7.1,4.7-7.1C435.5,1,437.2,3.6,437.2,7.9z
		 M429.8,8.1c0,3.5,1.1,5.6,2.8,5.6c1.9,0,2.8-2.2,2.8-5.7c0-3.4-0.9-5.6-2.8-5.6C430.9,2.5,429.8,4.4,429.8,8.1z"/>
	<path fill="#FFFFFF" d="M442.9,3L442.9,3l-2.4,1.3l-0.4-1.4l3-1.6h1.6v13.6h-1.8V3z"/>
	<path fill="#FFFFFF" d="M10,33.1c0,4.6-1.7,7.2-4.7,7.2c-2.7,0-4.5-2.5-4.5-7c0-4.6,2-7.1,4.7-7.1C8.4,26.2,10,28.8,10,33.1z
		 M2.6,33.3c0,3.5,1.1,5.6,2.8,5.6c1.9,0,2.8-2.2,2.8-5.7c0-3.4-0.9-5.6-2.8-5.6C3.8,27.7,2.6,29.6,2.6,33.3z"/>
	<path fill="#FFFFFF" d="M20.8,33.1c0,4.6-1.7,7.2-4.7,7.2c-2.7,0-4.5-2.5-4.5-7c0-4.6,2-7.1,4.7-7.1C19.1,26.2,20.8,28.8,20.8,33.1
		z M13.4,33.3c0,3.5,1.1,5.6,2.8,5.6c1.9,0,2.8-2.2,2.8-5.7c0-3.4-0.9-5.6-2.8-5.6C14.6,27.7,13.4,29.6,13.4,33.3z"/>
	<path fill="#FFFFFF" d="M26.5,28.2L26.5,28.2l-2.4,1.3l-0.4-1.4l3-1.6h1.6v13.6h-1.8V28.2z"/>
	<path fill="#FFFFFF" d="M42.3,33.1c0,4.6-1.7,7.2-4.7,7.2c-2.7,0-4.5-2.5-4.5-7c0-4.6,2-7.1,4.7-7.1C40.7,26.2,42.3,28.8,42.3,33.1
		z M34.9,33.3c0,3.5,1.1,5.6,2.8,5.6c1.9,0,2.8-2.2,2.8-5.7c0-3.4-0.9-5.6-2.8-5.6C36.1,27.7,34.9,29.6,34.9,33.3z"/>
	<path fill="#FFFFFF" d="M48,28.2L48,28.2l-2.4,1.3l-0.4-1.4l3-1.6h1.6v13.6H48V28.2z"/>
	<path fill="#FFFFFF" d="M58.8,28.2L58.8,28.2l-2.4,1.3L56,28.1l3-1.6h1.6v13.6h-1.8V28.2z"/>
	<path fill="#FFFFFF" d="M74.6,33.1c0,4.6-1.7,7.2-4.7,7.2c-2.7,0-4.5-2.5-4.5-7c0-4.6,2-7.1,4.7-7.1C73,26.2,74.6,28.8,74.6,33.1z
		 M67.2,33.3c0,3.5,1.1,5.6,2.8,5.6c1.9,0,2.8-2.2,2.8-5.7c0-3.4-0.9-5.6-2.8-5.6C68.4,27.7,67.2,29.6,67.2,33.3z"/>
	<path fill="#FFFFFF" d="M85.4,33.1c0,4.6-1.7,7.2-4.7,7.2c-2.7,0-4.5-2.5-4.5-7c0-4.6,2-7.1,4.7-7.1C83.8,26.2,85.4,28.8,85.4,33.1
		z M78,33.3c0,3.5,1.1,5.6,2.8,5.6c1.9,0,2.8-2.2,2.8-5.7c0-3.4-0.9-5.6-2.8-5.6C79.2,27.7,78,29.6,78,33.3z"/>
	<path fill="#FFFFFF" d="M100.6,33.1c0,4.6-1.7,7.2-4.7,7.2c-2.7,0-4.5-2.5-4.5-7c0-4.6,2-7.1,4.7-7.1
		C99,26.2,100.6,28.8,100.6,33.1z M93.2,33.3c0,3.5,1.1,5.6,2.8,5.6c1.9,0,2.8-2.2,2.8-5.7c0-3.4-0.9-5.6-2.8-5.6
		C94.4,27.7,93.2,29.6,93.2,33.3z"/>
	<path fill="#FFFFFF" d="M111.4,33.1c0,4.6-1.7,7.2-4.7,7.2c-2.7,0-4.5-2.5-4.5-7c0-4.6,2-7.1,4.7-7.1
		C109.8,26.2,111.4,28.8,111.4,33.1z M104,33.3c0,3.5,1.1,5.6,2.8,5.6c1.9,0,2.8-2.2,2.8-5.7c0-3.4-0.9-5.6-2.8-5.6
		C105.2,27.7,104,29.6,104,33.3z"/>
	<path fill="#FFFFFF" d="M117.1,28.2L117.1,28.2l-2.4,1.3l-0.4-1.4l3-1.6h1.6v13.6h-1.8V28.2z"/>
	<path fill="#FFFFFF" d="M133,33.1c0,4.6-1.7,7.2-4.7,7.2c-2.7,0-4.5-2.5-4.5-7c0-4.6,2-7.1,4.7-7.1C131.3,26.2,133,28.8,133,33.1z
		 M125.6,33.3c0,3.5,1.1,5.6,2.8,5.6c1.9,0,2.8-2.2,2.8-5.7c0-3.4-0.9-5.6-2.8-5.6C126.7,27.7,125.6,29.6,125.6,33.3z"/>
	<path fill="#FFFFFF" d="M143.7,33.1c0,4.6-1.7,7.2-4.7,7.2c-2.7,0-4.5-2.5-4.5-7c0-4.6,2-7.1,4.7-7.1
		C142.1,26.2,143.7,28.8,143.7,33.1z M136.3,33.3c0,3.5,1.1,5.6,2.8,5.6c1.9,0,2.8-2.2,2.8-5.7c0-3.4-0.9-5.6-2.8-5.6
		C137.5,27.7,136.3,29.6,136.3,33.3z"/>
	<path fill="#FFFFFF" d="M154.5,33.1c0,4.6-1.7,7.2-4.7,7.2c-2.7,0-4.5-2.5-4.5-7c0-4.6,2-7.1,4.7-7.1
		C152.9,26.2,154.5,28.8,154.5,33.1z M147.1,33.3c0,3.5,1.1,5.6,2.8,5.6c1.9,0,2.8-2.2,2.8-5.7c0-3.4-0.9-5.6-2.8-5.6
		C148.3,27.7,147.1,29.6,147.1,33.3z"/>
	<path fill="#FFFFFF" d="M165.3,33.1c0,4.6-1.7,7.2-4.7,7.2c-2.7,0-4.5-2.5-4.5-7c0-4.6,2-7.1,4.7-7.1
		C163.6,26.2,165.3,28.8,165.3,33.1z M157.9,33.3c0,3.5,1.1,5.6,2.8,5.6c1.9,0,2.8-2.2,2.8-5.7c0-3.4-0.9-5.6-2.8-5.6
		C159,27.7,157.9,29.6,157.9,33.3z"/>
	<path fill="#FFFFFF" d="M176.1,33.1c0,4.6-1.7,7.2-4.7,7.2c-2.7,0-4.5-2.5-4.5-7c0-4.6,2-7.1,4.7-7.1
		C174.4,26.2,176.1,28.8,176.1,33.1z M168.6,33.3c0,3.5,1.1,5.6,2.8,5.6c1.9,0,2.8-2.2,2.8-5.7c0-3.4-0.9-5.6-2.8-5.6
		C169.8,27.7,168.6,29.6,168.6,33.3z"/>
	<path fill="#FFFFFF" d="M191.3,33.1c0,4.6-1.7,7.2-4.7,7.2c-2.7,0-4.5-2.5-4.5-7c0-4.6,2-7.1,4.7-7.1
		C189.6,26.2,191.3,28.8,191.3,33.1z M183.9,33.3c0,3.5,1.1,5.6,2.8,5.6c1.9,0,2.8-2.2,2.8-5.7c0-3.4-0.9-5.6-2.8-5.6
		C185,27.7,183.9,29.6,183.9,33.3z"/>
	<path fill="#FFFFFF" d="M197,28.2L197,28.2l-2.4,1.3l-0.4-1.4l3-1.6h1.6v13.6H197V28.2z"/>
	<path fill="#FFFFFF" d="M207.8,28.2L207.8,28.2l-2.4,1.3l-0.4-1.4l3-1.6h1.6v13.6h-1.8V28.2z"/>
	<path fill="#FFFFFF" d="M218.5,28.2L218.5,28.2l-2.4,1.3l-0.4-1.4l3-1.6h1.6v13.6h-1.8V28.2z"/>
	<path fill="#FFFFFF" d="M234.4,33.1c0,4.6-1.7,7.2-4.7,7.2c-2.7,0-4.5-2.5-4.5-7c0-4.6,2-7.1,4.7-7.1
		C232.7,26.2,234.4,28.8,234.4,33.1z M227,33.3c0,3.5,1.1,5.6,2.8,5.6c1.9,0,2.8-2.2,2.8-5.7c0-3.4-0.9-5.6-2.8-5.6
		C228.1,27.7,227,29.6,227,33.3z"/>
	<path fill="#FFFFFF" d="M240.1,28.2L240.1,28.2l-2.4,1.3l-0.4-1.4l3-1.6h1.6v13.6h-1.8V28.2z"/>
	<path fill="#FFFFFF" d="M255.9,33.1c0,4.6-1.7,7.2-4.7,7.2c-2.7,0-4.5-2.5-4.5-7c0-4.6,2-7.1,4.7-7.1
		C254.3,26.2,255.9,28.8,255.9,33.1z M248.5,33.3c0,3.5,1.1,5.6,2.8,5.6c1.9,0,2.8-2.2,2.8-5.7c0-3.4-0.9-5.6-2.8-5.6
		C249.7,27.7,248.5,29.6,248.5,33.3z"/>
	<path fill="#FFFFFF" d="M266.7,33.1c0,4.6-1.7,7.2-4.7,7.2c-2.7,0-4.5-2.5-4.5-7c0-4.6,2-7.1,4.7-7.1
		C265,26.2,266.7,28.8,266.7,33.1z M259.3,33.3c0,3.5,1.1,5.6,2.8,5.6c1.9,0,2.8-2.2,2.8-5.7c0-3.4-0.9-5.6-2.8-5.6
		C260.4,27.7,259.3,29.6,259.3,33.3z"/>
	<path fill="#FFFFFF" d="M281.9,33.1c0,4.6-1.7,7.2-4.7,7.2c-2.7,0-4.5-2.5-4.5-7c0-4.6,2-7.1,4.7-7.1
		C280.3,26.2,281.9,28.8,281.9,33.1z M274.5,33.3c0,3.5,1.1,5.6,2.8,5.6c1.9,0,2.8-2.2,2.8-5.7c0-3.4-0.9-5.6-2.8-5.6
		C275.7,27.7,274.5,29.6,274.5,33.3z"/>
	<path fill="#FFFFFF" d="M287.6,28.2L287.6,28.2l-2.4,1.3l-0.4-1.4l3-1.6h1.6v13.6h-1.8V28.2z"/>
	<path fill="#FFFFFF" d="M298.4,28.2L298.4,28.2l-2.4,1.3l-0.4-1.4l3-1.6h1.6v13.6h-1.8V28.2z"/>
	<path fill="#FFFFFF" d="M314.2,33.1c0,4.6-1.7,7.2-4.7,7.2c-2.7,0-4.5-2.5-4.5-7c0-4.6,2-7.1,4.7-7.1
		C312.6,26.2,314.2,28.8,314.2,33.1z M306.8,33.3c0,3.5,1.1,5.6,2.8,5.6c1.9,0,2.8-2.2,2.8-5.7c0-3.4-0.9-5.6-2.8-5.6
		C308,27.7,306.8,29.6,306.8,33.3z"/>
	<path fill="#FFFFFF" d="M319.9,28.2L319.9,28.2l-2.4,1.3l-0.4-1.4l3-1.6h1.6v13.6h-1.8V28.2z"/>
	<path fill="#FFFFFF" d="M335.8,33.1c0,4.6-1.7,7.2-4.7,7.2c-2.7,0-4.5-2.5-4.5-7c0-4.6,2-7.1,4.7-7.1
		C334.1,26.2,335.8,28.8,335.8,33.1z M328.4,33.3c0,3.5,1.1,5.6,2.8,5.6c1.9,0,2.8-2.2,2.8-5.7c0-3.4-0.9-5.6-2.8-5.6
		C329.5,27.7,328.4,29.6,328.4,33.3z"/>
	<path fill="#FFFFFF" d="M346.5,33.1c0,4.6-1.7,7.2-4.7,7.2c-2.7,0-4.5-2.5-4.5-7c0-4.6,2-7.1,4.7-7.1
		C344.9,26.2,346.5,28.8,346.5,33.1z M339.1,33.3c0,3.5,1.1,5.6,2.8,5.6c1.9,0,2.8-2.2,2.8-5.7c0-3.4-0.9-5.6-2.8-5.6
		C340.3,27.7,339.1,29.6,339.1,33.3z"/>
	<path fill="#FFFFFF" d="M357.3,33.1c0,4.6-1.7,7.2-4.7,7.2c-2.7,0-4.5-2.5-4.5-7c0-4.6,2-7.1,4.7-7.1
		C355.7,26.2,357.3,28.8,357.3,33.1z M349.9,33.3c0,3.5,1.1,5.6,2.8,5.6c1.9,0,2.8-2.2,2.8-5.7c0-3.4-0.9-5.6-2.8-5.6
		C351.1,27.7,349.9,29.6,349.9,33.3z"/>
	<path fill="#FFFFFF" d="M372.5,33.1c0,4.6-1.7,7.2-4.7,7.2c-2.7,0-4.5-2.5-4.5-7c0-4.6,2-7.1,4.7-7.1
		C370.9,26.2,372.5,28.8,372.5,33.1z M365.1,33.3c0,3.5,1.1,5.6,2.8,5.6c1.9,0,2.8-2.2,2.8-5.7c0-3.4-0.9-5.6-2.8-5.6
		C366.3,27.7,365.1,29.6,365.1,33.3z"/>
	<path fill="#FFFFFF" d="M378.3,28.2L378.3,28.2l-2.4,1.3l-0.4-1.4l3-1.6h1.6v13.6h-1.8V28.2z"/>
	<path fill="#FFFFFF" d="M389,28.2L389,28.2l-2.4,1.3l-0.4-1.4l3-1.6h1.6v13.6H389V28.2z"/>
	<path fill="#FFFFFF" d="M404.9,33.1c0,4.6-1.7,7.2-4.7,7.2c-2.7,0-4.5-2.5-4.5-7c0-4.6,2-7.1,4.7-7.1
		C403.2,26.2,404.9,28.8,404.9,33.1z M397.4,33.3c0,3.5,1.1,5.6,2.8,5.6c1.9,0,2.8-2.2,2.8-5.7c0-3.4-0.9-5.6-2.8-5.6
		C398.6,27.7,397.4,29.6,397.4,33.3z"/>
	<path fill="#FFFFFF" d="M415.6,33.1c0,4.6-1.7,7.2-4.7,7.2c-2.7,0-4.5-2.5-4.5-7c0-4.6,2-7.1,4.7-7.1
		C414,26.2,415.6,28.8,415.6,33.1z M408.2,33.3c0,3.5,1.1,5.6,2.8,5.6c1.9,0,2.8-2.2,2.8-5.7c0-3.4-0.9-5.6-2.8-5.6
		C409.4,27.7,408.2,29.6,408.2,33.3z"/>
	<path fill="#FFFFFF" d="M421.3,28.2L421.3,28.2l-2.4,1.3l-0.4-1.4l3-1.6h1.6v13.6h-1.8V28.2z"/>
	<path fill="#FFFFFF" d="M437.2,33.1c0,4.6-1.7,7.2-4.7,7.2c-2.7,0-4.5-2.5-4.5-7c0-4.6,2-7.1,4.7-7.1
		C435.5,26.2,437.2,28.8,437.2,33.1z M429.8,33.3c0,3.5,1.1,5.6,2.8,5.6c1.9,0,2.8-2.2,2.8-5.7c0-3.4-0.9-5.6-2.8-5.6
		C430.9,27.7,429.8,29.6,429.8,33.3z"/>
	<path fill="#FFFFFF" d="M442.9,28.2L442.9,28.2l-2.4,1.3l-0.4-1.4l3-1.6h1.6v13.6h-1.8V28.2z"/>
	<path fill="#FFFFFF" d="M10,58.3c0,4.6-1.7,7.2-4.7,7.2c-2.7,0-4.5-2.5-4.5-7c0-4.6,2-7.1,4.7-7.1C8.4,51.4,10,54,10,58.3z
		 M2.6,58.5c0,3.5,1.1,5.6,2.8,5.6c1.9,0,2.8-2.2,2.8-5.7c0-3.4-0.9-5.6-2.8-5.6C3.8,52.9,2.6,54.8,2.6,58.5z"/>
	<path fill="#FFFFFF" d="M15.7,53.4L15.7,53.4l-2.4,1.3L13,53.3l3-1.6h1.6v13.6h-1.8V53.4z"/>
	<path fill="#FFFFFF" d="M26.5,53.4L26.5,53.4l-2.4,1.3l-0.4-1.4l3-1.6h1.6v13.6h-1.8V53.4z"/>
	<path fill="#FFFFFF" d="M37.3,53.4L37.3,53.4l-2.4,1.3l-0.4-1.4l3-1.6h1.6v13.6h-1.8V53.4z"/>
	<path fill="#FFFFFF" d="M53.1,58.3c0,4.6-1.7,7.2-4.7,7.2c-2.7,0-4.5-2.5-4.5-7c0-4.6,2-7.1,4.7-7.1C51.5,51.4,53.1,54,53.1,58.3z
		 M45.7,58.5c0,3.5,1.1,5.6,2.8,5.6c1.9,0,2.8-2.2,2.8-5.7c0-3.4-0.9-5.6-2.8-5.6C46.9,52.9,45.7,54.8,45.7,58.5z"/>
	<path fill="#FFFFFF" d="M63.9,58.3c0,4.6-1.7,7.2-4.7,7.2c-2.7,0-4.5-2.5-4.5-7c0-4.6,2-7.1,4.7-7.1C62.2,51.4,63.9,54,63.9,58.3z
		 M56.5,58.5c0,3.5,1.1,5.6,2.8,5.6c1.9,0,2.8-2.2,2.8-5.7c0-3.4-0.9-5.6-2.8-5.6C57.6,52.9,56.5,54.8,56.5,58.5z"/>
	<path fill="#FFFFFF" d="M69.6,53.4L69.6,53.4l-2.4,1.3l-0.4-1.4l3-1.6h1.6v13.6h-1.8V53.4z"/>
	<path fill="#FFFFFF" d="M85.4,58.3c0,4.6-1.7,7.2-4.7,7.2c-2.7,0-4.5-2.5-4.5-7c0-4.6,2-7.1,4.7-7.1C83.8,51.4,85.4,54,85.4,58.3z
		 M78,58.5c0,3.5,1.1,5.6,2.8,5.6c1.9,0,2.8-2.2,2.8-5.7c0-3.4-0.9-5.6-2.8-5.6C79.2,52.9,78,54.8,78,58.5z"/>
	<path fill="#FFFFFF" d="M100.6,58.3c0,4.6-1.7,7.2-4.7,7.2c-2.7,0-4.5-2.5-4.5-7c0-4.6,2-7.1,4.7-7.1C99,51.4,100.6,54,100.6,58.3z
		 M93.2,58.5c0,3.5,1.1,5.6,2.8,5.6c1.9,0,2.8-2.2,2.8-5.7c0-3.4-0.9-5.6-2.8-5.6C94.4,52.9,93.2,54.8,93.2,58.5z"/>
	<path fill="#FFFFFF" d="M106.4,53.4L106.4,53.4l-2.4,1.3l-0.4-1.4l3-1.6h1.6v13.6h-1.8V53.4z"/>
	<path fill="#FFFFFF" d="M117.1,53.4L117.1,53.4l-2.4,1.3l-0.4-1.4l3-1.6h1.6v13.6h-1.8V53.4z"/>
	<path fill="#FFFFFF" d="M133,58.3c0,4.6-1.7,7.2-4.7,7.2c-2.7,0-4.5-2.5-4.5-7c0-4.6,2-7.1,4.7-7.1C131.3,51.4,133,54,133,58.3z
		 M125.6,58.5c0,3.5,1.1,5.6,2.8,5.6c1.9,0,2.8-2.2,2.8-5.7c0-3.4-0.9-5.6-2.8-5.6C126.7,52.9,125.6,54.8,125.6,58.5z"/>
	<path fill="#FFFFFF" d="M143.7,58.3c0,4.6-1.7,7.2-4.7,7.2c-2.7,0-4.5-2.5-4.5-7c0-4.6,2-7.1,4.7-7.1
		C142.1,51.4,143.7,54,143.7,58.3z M136.3,58.5c0,3.5,1.1,5.6,2.8,5.6c1.9,0,2.8-2.2,2.8-5.7c0-3.4-0.9-5.6-2.8-5.6
		C137.5,52.9,136.3,54.8,136.3,58.5z"/>
	<path fill="#FFFFFF" d="M149.4,53.4L149.4,53.4l-2.4,1.3l-0.4-1.4l3-1.6h1.6v13.6h-1.8V53.4z"/>
	<path fill="#FFFFFF" d="M165.3,58.3c0,4.6-1.7,7.2-4.7,7.2c-2.7,0-4.5-2.5-4.5-7c0-4.6,2-7.1,4.7-7.1
		C163.6,51.4,165.3,54,165.3,58.3z M157.9,58.5c0,3.5,1.1,5.6,2.8,5.6c1.9,0,2.8-2.2,2.8-5.7c0-3.4-0.9-5.6-2.8-5.6
		C159,52.9,157.9,54.8,157.9,58.5z"/>
	<path fill="#FFFFFF" d="M171,53.4L171,53.4l-2.4,1.3l-0.4-1.4l3-1.6h1.6v13.6H171V53.4z"/>
	<path fill="#FFFFFF" d="M191.3,58.3c0,4.6-1.7,7.2-4.7,7.2c-2.7,0-4.5-2.5-4.5-7c0-4.6,2-7.1,4.7-7.1
		C189.6,51.4,191.3,54,191.3,58.3z M183.9,58.5c0,3.5,1.1,5.6,2.8,5.6c1.9,0,2.8-2.2,2.8-5.7c0-3.4-0.9-5.6-2.8-5.6
		C185,52.9,183.9,54.8,183.9,58.5z"/>
	<path fill="#FFFFFF" d="M202.1,58.3c0,4.6-1.7,7.2-4.7,7.2c-2.7,0-4.5-2.5-4.5-7c0-4.6,2-7.1,4.7-7.1
		C200.4,51.4,202.1,54,202.1,58.3z M194.6,58.5c0,3.5,1.1,5.6,2.8,5.6c1.9,0,2.8-2.2,2.8-5.7c0-3.4-0.9-5.6-2.8-5.6
		C195.8,52.9,194.6,54.8,194.6,58.5z"/>
	<path fill="#FFFFFF" d="M207.8,53.4L207.8,53.4l-2.4,1.3l-0.4-1.4l3-1.6h1.6v13.6h-1.8V53.4z"/>
	<path fill="#FFFFFF" d="M223.6,58.3c0,4.6-1.7,7.2-4.7,7.2c-2.7,0-4.5-2.5-4.5-7c0-4.6,2-7.1,4.7-7.1C222,51.4,223.6,54,223.6,58.3
		z M216.2,58.5c0,3.5,1.1,5.6,2.8,5.6c1.9,0,2.8-2.2,2.8-5.7c0-3.4-0.9-5.6-2.8-5.6C217.4,52.9,216.2,54.8,216.2,58.5z"/>
	<path fill="#FFFFFF" d="M234.4,58.3c0,4.6-1.7,7.2-4.7,7.2c-2.7,0-4.5-2.5-4.5-7c0-4.6,2-7.1,4.7-7.1
		C232.7,51.4,234.4,54,234.4,58.3z M227,58.5c0,3.5,1.1,5.6,2.8,5.6c1.9,0,2.8-2.2,2.8-5.7c0-3.4-0.9-5.6-2.8-5.6
		C228.1,52.9,227,54.8,227,58.5z"/>
	<path fill="#FFFFFF" d="M245.1,58.3c0,4.6-1.7,7.2-4.7,7.2c-2.7,0-4.5-2.5-4.5-7c0-4.6,2-7.1,4.7-7.1
		C243.5,51.4,245.1,54,245.1,58.3z M237.7,58.5c0,3.5,1.1,5.6,2.8,5.6c1.9,0,2.8-2.2,2.8-5.7c0-3.4-0.9-5.6-2.8-5.6
		C238.9,52.9,237.7,54.8,237.7,58.5z"/>
	<path fill="#FFFFFF" d="M255.9,58.3c0,4.6-1.7,7.2-4.7,7.2c-2.7,0-4.5-2.5-4.5-7c0-4.6,2-7.1,4.7-7.1
		C254.3,51.4,255.9,54,255.9,58.3z M248.5,58.5c0,3.5,1.1,5.6,2.8,5.6c1.9,0,2.8-2.2,2.8-5.7c0-3.4-0.9-5.6-2.8-5.6
		C249.7,52.9,248.5,54.8,248.5,58.5z"/>
	<path fill="#FFFFFF" d="M266.7,58.3c0,4.6-1.7,7.2-4.7,7.2c-2.7,0-4.5-2.5-4.5-7c0-4.6,2-7.1,4.7-7.1C265,51.4,266.7,54,266.7,58.3
		z M259.3,58.5c0,3.5,1.1,5.6,2.8,5.6c1.9,0,2.8-2.2,2.8-5.7c0-3.4-0.9-5.6-2.8-5.6C260.4,52.9,259.3,54.8,259.3,58.5z"/>
	<path fill="#FFFFFF" d="M281.9,58.3c0,4.6-1.7,7.2-4.7,7.2c-2.7,0-4.5-2.5-4.5-7c0-4.6,2-7.1,4.7-7.1
		C280.3,51.4,281.9,54,281.9,58.3z M274.5,58.5c0,3.5,1.1,5.6,2.8,5.6c1.9,0,2.8-2.2,2.8-5.7c0-3.4-0.9-5.6-2.8-5.6
		C275.7,52.9,274.5,54.8,274.5,58.5z"/>
	<path fill="#FFFFFF" d="M287.6,53.4L287.6,53.4l-2.4,1.3l-0.4-1.4l3-1.6h1.6v13.6h-1.8V53.4z"/>
	<path fill="#FFFFFF" d="M298.4,53.4L298.4,53.4l-2.4,1.3l-0.4-1.4l3-1.6h1.6v13.6h-1.8V53.4z"/>
	<path fill="#FFFFFF" d="M314.2,58.3c0,4.6-1.7,7.2-4.7,7.2c-2.7,0-4.5-2.5-4.5-7c0-4.6,2-7.1,4.7-7.1
		C312.6,51.4,314.2,54,314.2,58.3z M306.8,58.5c0,3.5,1.1,5.6,2.8,5.6c1.9,0,2.8-2.2,2.8-5.7c0-3.4-0.9-5.6-2.8-5.6
		C308,52.9,306.8,54.8,306.8,58.5z"/>
	<path fill="#FFFFFF" d="M319.9,53.4L319.9,53.4l-2.4,1.3l-0.4-1.4l3-1.6h1.6v13.6h-1.8V53.4z"/>
	<path fill="#FFFFFF" d="M335.8,58.3c0,4.6-1.7,7.2-4.7,7.2c-2.7,0-4.5-2.5-4.5-7c0-4.6,2-7.1,4.7-7.1
		C334.1,51.4,335.8,54,335.8,58.3z M328.4,58.5c0,3.5,1.1,5.6,2.8,5.6c1.9,0,2.8-2.2,2.8-5.7c0-3.4-0.9-5.6-2.8-5.6
		C329.5,52.9,328.4,54.8,328.4,58.5z"/>
	<path fill="#FFFFFF" d="M346.5,58.3c0,4.6-1.7,7.2-4.7,7.2c-2.7,0-4.5-2.5-4.5-7c0-4.6,2-7.1,4.7-7.1
		C344.9,51.4,346.5,54,346.5,58.3z M339.1,58.5c0,3.5,1.1,5.6,2.8,5.6c1.9,0,2.8-2.2,2.8-5.7c0-3.4-0.9-5.6-2.8-5.6
		C340.3,52.9,339.1,54.8,339.1,58.5z"/>
	<path fill="#FFFFFF" d="M352.3,53.4L352.3,53.4l-2.4,1.3l-0.4-1.4l3-1.6h1.6v13.6h-1.8V53.4z"/>
	<path fill="#FFFFFF" d="M372.5,58.3c0,4.6-1.7,7.2-4.7,7.2c-2.7,0-4.5-2.5-4.5-7c0-4.6,2-7.1,4.7-7.1
		C370.9,51.4,372.5,54,372.5,58.3z M365.1,58.5c0,3.5,1.1,5.6,2.8,5.6c1.9,0,2.8-2.2,2.8-5.7c0-3.4-0.9-5.6-2.8-5.6
		C366.3,52.9,365.1,54.8,365.1,58.5z"/>
	<path fill="#FFFFFF" d="M378.3,53.4L378.3,53.4l-2.4,1.3l-0.4-1.4l3-1.6h1.6v13.6h-1.8V53.4z"/>
	<path fill="#FFFFFF" d="M389,53.4L389,53.4l-2.4,1.3l-0.4-1.4l3-1.6h1.6v13.6H389V53.4z"/>
	<path fill="#FFFFFF" d="M399.8,53.4L399.8,53.4l-2.4,1.3l-0.4-1.4l3-1.6h1.6v13.6h-1.8V53.4z"/>
	<path fill="#FFFFFF" d="M415.6,58.3c0,4.6-1.7,7.2-4.7,7.2c-2.7,0-4.5-2.5-4.5-7c0-4.6,2-7.1,4.7-7.1C414,51.4,415.6,54,415.6,58.3
		z M408.2,58.5c0,3.5,1.1,5.6,2.8,5.6c1.9,0,2.8-2.2,2.8-5.7c0-3.4-0.9-5.6-2.8-5.6C409.4,52.9,408.2,54.8,408.2,58.5z"/>
	<path fill="#FFFFFF" d="M426.4,58.3c0,4.6-1.7,7.2-4.7,7.2c-2.7,0-4.5-2.5-4.5-7c0-4.6,2-7.1,4.7-7.1
		C424.8,51.4,426.4,54,426.4,58.3z M419,58.5c0,3.5,1.1,5.6,2.8,5.6c1.9,0,2.8-2.2,2.8-5.7c0-3.4-0.9-5.6-2.8-5.6
		C420.2,52.9,419,54.8,419,58.5z"/>
	<path fill="#FFFFFF" d="M432.1,53.4L432.1,53.4l-2.4,1.3l-0.4-1.4l3-1.6h1.6v13.6h-1.8V53.4z"/>
	<path fill="#FFFFFF" d="M442.9,53.4L442.9,53.4l-2.4,1.3l-0.4-1.4l3-1.6h1.6v13.6h-1.8V53.4z"/>
	<path fill="#FFFFFF" d="M10,83.5c0,4.6-1.7,7.2-4.7,7.2c-2.7,0-4.5-2.5-4.5-7c0-4.6,2-7.1,4.7-7.1C8.4,76.6,10,79.2,10,83.5z
		 M2.6,83.7c0,3.5,1.1,5.6,2.8,5.6c1.9,0,2.8-2.2,2.8-5.7c0-3.4-0.9-5.6-2.8-5.6C3.8,78.1,2.6,80,2.6,83.7z"/>
	<path fill="#FFFFFF" d="M20.8,83.5c0,4.6-1.7,7.2-4.7,7.2c-2.7,0-4.5-2.5-4.5-7c0-4.6,2-7.1,4.7-7.1C19.1,76.6,20.8,79.2,20.8,83.5
		z M13.4,83.7c0,3.5,1.1,5.6,2.8,5.6c1.9,0,2.8-2.2,2.8-5.7c0-3.4-0.9-5.6-2.8-5.6C14.6,78.1,13.4,80,13.4,83.7z"/>
	<path fill="#FFFFFF" d="M26.5,78.6L26.5,78.6l-2.4,1.3l-0.4-1.4l3-1.6h1.6v13.6h-1.8V78.6z"/>
	<path fill="#FFFFFF" d="M42.3,83.5c0,4.6-1.7,7.2-4.7,7.2c-2.7,0-4.5-2.5-4.5-7c0-4.6,2-7.1,4.7-7.1C40.7,76.6,42.3,79.2,42.3,83.5
		z M34.9,83.7c0,3.5,1.1,5.6,2.8,5.6c1.9,0,2.8-2.2,2.8-5.7c0-3.4-0.9-5.6-2.8-5.6C36.1,78.1,34.9,80,34.9,83.7z"/>
	<path fill="#FFFFFF" d="M53.1,83.5c0,4.6-1.7,7.2-4.7,7.2c-2.7,0-4.5-2.5-4.5-7c0-4.6,2-7.1,4.7-7.1C51.5,76.6,53.1,79.2,53.1,83.5
		z M45.7,83.7c0,3.5,1.1,5.6,2.8,5.6c1.9,0,2.8-2.2,2.8-5.7c0-3.4-0.9-5.6-2.8-5.6C46.9,78.1,45.7,80,45.7,83.7z"/>
	<path fill="#FFFFFF" d="M63.9,83.5c0,4.6-1.7,7.2-4.7,7.2c-2.7,0-4.5-2.5-4.5-7c0-4.6,2-7.1,4.7-7.1C62.2,76.6,63.9,79.2,63.9,83.5
		z M56.5,83.7c0,3.5,1.1,5.6,2.8,5.6c1.9,0,2.8-2.2,2.8-5.7c0-3.4-0.9-5.6-2.8-5.6C57.6,78.1,56.5,80,56.5,83.7z"/>
	<path fill="#FFFFFF" d="M74.6,83.5c0,4.6-1.7,7.2-4.7,7.2c-2.7,0-4.5-2.5-4.5-7c0-4.6,2-7.1,4.7-7.1C73,76.6,74.6,79.2,74.6,83.5z
		 M67.2,83.7c0,3.5,1.1,5.6,2.8,5.6c1.9,0,2.8-2.2,2.8-5.7c0-3.4-0.9-5.6-2.8-5.6C68.4,78.1,67.2,80,67.2,83.7z"/>
	<path fill="#FFFFFF" d="M85.4,83.5c0,4.6-1.7,7.2-4.7,7.2c-2.7,0-4.5-2.5-4.5-7c0-4.6,2-7.1,4.7-7.1C83.8,76.6,85.4,79.2,85.4,83.5
		z M78,83.7c0,3.5,1.1,5.6,2.8,5.6c1.9,0,2.8-2.2,2.8-5.7c0-3.4-0.9-5.6-2.8-5.6C79.2,78.1,78,80,78,83.7z"/>
	<path fill="#FFFFFF" d="M100.6,83.5c0,4.6-1.7,7.2-4.7,7.2c-2.7,0-4.5-2.5-4.5-7c0-4.6,2-7.1,4.7-7.1
		C99,76.6,100.6,79.2,100.6,83.5z M93.2,83.7c0,3.5,1.1,5.6,2.8,5.6c1.9,0,2.8-2.2,2.8-5.7c0-3.4-0.9-5.6-2.8-5.6
		C94.4,78.1,93.2,80,93.2,83.7z"/>
	<path fill="#FFFFFF" d="M106.4,78.6L106.4,78.6l-2.4,1.3l-0.4-1.4l3-1.6h1.6v13.6h-1.8V78.6z"/>
	<path fill="#FFFFFF" d="M117.1,78.6L117.1,78.6l-2.4,1.3l-0.4-1.4l3-1.6h1.6v13.6h-1.8V78.6z"/>
	<path fill="#FFFFFF" d="M133,83.5c0,4.6-1.7,7.2-4.7,7.2c-2.7,0-4.5-2.5-4.5-7c0-4.6,2-7.1,4.7-7.1C131.3,76.6,133,79.2,133,83.5z
		 M125.6,83.7c0,3.5,1.1,5.6,2.8,5.6c1.9,0,2.8-2.2,2.8-5.7c0-3.4-0.9-5.6-2.8-5.6C126.7,78.1,125.6,80,125.6,83.7z"/>
	<path fill="#FFFFFF" d="M138.7,78.6L138.7,78.6l-2.4,1.3l-0.4-1.4l3-1.6h1.6v13.6h-1.8V78.6z"/>
	<path fill="#FFFFFF" d="M149.4,78.6L149.4,78.6l-2.4,1.3l-0.4-1.4l3-1.6h1.6v13.6h-1.8V78.6z"/>
	<path fill="#FFFFFF" d="M160.2,78.6L160.2,78.6l-2.4,1.3l-0.4-1.4l3-1.6h1.6v13.6h-1.8V78.6z"/>
	<path fill="#FFFFFF" d="M176.1,83.5c0,4.6-1.7,7.2-4.7,7.2c-2.7,0-4.5-2.5-4.5-7c0-4.6,2-7.1,4.7-7.1
		C174.4,76.6,176.1,79.2,176.1,83.5z M168.6,83.7c0,3.5,1.1,5.6,2.8,5.6c1.9,0,2.8-2.2,2.8-5.7c0-3.4-0.9-5.6-2.8-5.6
		C169.8,78.1,168.6,80,168.6,83.7z"/>
	<path fill="#FFFFFF" d="M191.3,83.5c0,4.6-1.7,7.2-4.7,7.2c-2.7,0-4.5-2.5-4.5-7c0-4.6,2-7.1,4.7-7.1
		C189.6,76.6,191.3,79.2,191.3,83.5z M183.9,83.7c0,3.5,1.1,5.6,2.8,5.6c1.9,0,2.8-2.2,2.8-5.7c0-3.4-0.9-5.6-2.8-5.6
		C185,78.1,183.9,80,183.9,83.7z"/>
	<path fill="#FFFFFF" d="M197,78.6L197,78.6l-2.4,1.3l-0.4-1.4l3-1.6h1.6v13.6H197V78.6z"/>
	<path fill="#FFFFFF" d="M207.8,78.6L207.8,78.6l-2.4,1.3l-0.4-1.4l3-1.6h1.6v13.6h-1.8V78.6z"/>
	<path fill="#FFFFFF" d="M223.6,83.5c0,4.6-1.7,7.2-4.7,7.2c-2.7,0-4.5-2.5-4.5-7c0-4.6,2-7.1,4.7-7.1
		C222,76.6,223.6,79.2,223.6,83.5z M216.2,83.7c0,3.5,1.1,5.6,2.8,5.6c1.9,0,2.8-2.2,2.8-5.7c0-3.4-0.9-5.6-2.8-5.6
		C217.4,78.1,216.2,80,216.2,83.7z"/>
	<path fill="#FFFFFF" d="M229.3,78.6L229.3,78.6l-2.4,1.3l-0.4-1.4l3-1.6h1.6v13.6h-1.8V78.6z"/>
	<path fill="#FFFFFF" d="M240.1,78.6L240.1,78.6l-2.4,1.3l-0.4-1.4l3-1.6h1.6v13.6h-1.8V78.6z"/>
	<path fill="#FFFFFF" d="M250.9,78.6L250.9,78.6l-2.4,1.3l-0.4-1.4l3-1.6h1.6v13.6h-1.8V78.6z"/>
	<path fill="#FFFFFF" d="M261.6,78.6L261.6,78.6l-2.4,1.3l-0.4-1.4l3-1.6h1.6v13.6h-1.8V78.6z"/>
	<path fill="#FFFFFF" d="M281.9,83.5c0,4.6-1.7,7.2-4.7,7.2c-2.7,0-4.5-2.5-4.5-7c0-4.6,2-7.1,4.7-7.1
		C280.3,76.6,281.9,79.2,281.9,83.5z M274.5,83.7c0,3.5,1.1,5.6,2.8,5.6c1.9,0,2.8-2.2,2.8-5.7c0-3.4-0.9-5.6-2.8-5.6
		C275.7,78.1,274.5,80,274.5,83.7z"/>
	<path fill="#FFFFFF" d="M287.6,78.6L287.6,78.6l-2.4,1.3l-0.4-1.4l3-1.6h1.6v13.6h-1.8V78.6z"/>
	<path fill="#FFFFFF" d="M298.4,78.6L298.4,78.6l-2.4,1.3l-0.4-1.4l3-1.6h1.6v13.6h-1.8V78.6z"/>
	<path fill="#FFFFFF" d="M309.2,78.6L309.2,78.6l-2.4,1.3l-0.4-1.4l3-1.6h1.6v13.6h-1.8V78.6z"/>
	<path fill="#FFFFFF" d="M325,83.5c0,4.6-1.7,7.2-4.7,7.2c-2.7,0-4.5-2.5-4.5-7c0-4.6,2-7.1,4.7-7.1C323.4,76.6,325,79.2,325,83.5z
		 M317.6,83.7c0,3.5,1.1,5.6,2.8,5.6c1.9,0,2.8-2.2,2.8-5.7c0-3.4-0.9-5.6-2.8-5.6C318.8,78.1,317.6,80,317.6,83.7z"/>
	<path fill="#FFFFFF" d="M330.7,78.6L330.7,78.6l-2.4,1.3l-0.4-1.4l3-1.6h1.6v13.6h-1.8V78.6z"/>
	<path fill="#FFFFFF" d="M346.5,83.5c0,4.6-1.7,7.2-4.7,7.2c-2.7,0-4.5-2.5-4.5-7c0-4.6,2-7.1,4.7-7.1
		C344.9,76.6,346.5,79.2,346.5,83.5z M339.1,83.7c0,3.5,1.1,5.6,2.8,5.6c1.9,0,2.8-2.2,2.8-5.7c0-3.4-0.9-5.6-2.8-5.6
		C340.3,78.1,339.1,80,339.1,83.7z"/>
	<path fill="#FFFFFF" d="M357.3,83.5c0,4.6-1.7,7.2-4.7,7.2c-2.7,0-4.5-2.5-4.5-7c0-4.6,2-7.1,4.7-7.1
		C355.7,76.6,357.3,79.2,357.3,83.5z M349.9,83.7c0,3.5,1.1,5.6,2.8,5.6c1.9,0,2.8-2.2,2.8-5.7c0-3.4-0.9-5.6-2.8-5.6
		C351.1,78.1,349.9,80,349.9,83.7z"/>
	<path fill="#FFFFFF" d="M372.5,83.5c0,4.6-1.7,7.2-4.7,7.2c-2.7,0-4.5-2.5-4.5-7c0-4.6,2-7.1,4.7-7.1
		C370.9,76.6,372.5,79.2,372.5,83.5z M365.1,83.7c0,3.5,1.1,5.6,2.8,5.6c1.9,0,2.8-2.2,2.8-5.7c0-3.4-0.9-5.6-2.8-5.6
		C366.3,78.1,365.1,80,365.1,83.7z"/>
	<path fill="#FFFFFF" d="M378.3,78.6L378.3,78.6l-2.4,1.3l-0.4-1.4l3-1.6h1.6v13.6h-1.8V78.6z"/>
	<path fill="#FFFFFF" d="M389,78.6L389,78.6l-2.4,1.3l-0.4-1.4l3-1.6h1.6v13.6H389V78.6z"/>
	<path fill="#FFFFFF" d="M404.9,83.5c0,4.6-1.7,7.2-4.7,7.2c-2.7,0-4.5-2.5-4.5-7c0-4.6,2-7.1,4.7-7.1
		C403.2,76.6,404.9,79.2,404.9,83.5z M397.4,83.7c0,3.5,1.1,5.6,2.8,5.6c1.9,0,2.8-2.2,2.8-5.7c0-3.4-0.9-5.6-2.8-5.6
		C398.6,78.1,397.4,80,397.4,83.7z"/>
	<path fill="#FFFFFF" d="M410.6,78.6L410.6,78.6l-2.4,1.3l-0.4-1.4l3-1.6h1.6v13.6h-1.8V78.6z"/>
	<path fill="#FFFFFF" d="M426.4,83.5c0,4.6-1.7,7.2-4.7,7.2c-2.7,0-4.5-2.5-4.5-7c0-4.6,2-7.1,4.7-7.1
		C424.8,76.6,426.4,79.2,426.4,83.5z M419,83.7c0,3.5,1.1,5.6,2.8,5.6c1.9,0,2.8-2.2,2.8-5.7c0-3.4-0.9-5.6-2.8-5.6
		C420.2,78.1,419,80,419,83.7z"/>
	<path fill="#FFFFFF" d="M437.2,83.5c0,4.6-1.7,7.2-4.7,7.2c-2.7,0-4.5-2.5-4.5-7c0-4.6,2-7.1,4.7-7.1
		C435.5,76.6,437.2,79.2,437.2,83.5z M429.8,83.7c0,3.5,1.1,5.6,2.8,5.6c1.9,0,2.8-2.2,2.8-5.7c0-3.4-0.9-5.6-2.8-5.6
		C430.9,78.1,429.8,80,429.8,83.7z"/>
	<path fill="#FFFFFF" d="M447.9,83.5c0,4.6-1.7,7.2-4.7,7.2c-2.7,0-4.5-2.5-4.5-7c0-4.6,2-7.1,4.7-7.1
		C446.3,76.6,447.9,79.2,447.9,83.5z M440.5,83.7c0,3.5,1.1,5.6,2.8,5.6c1.9,0,2.8-2.2,2.8-5.7c0-3.4-0.9-5.6-2.8-5.6
		C441.7,78.1,440.5,80,440.5,83.7z"/>
	<path fill="#FFFFFF" d="M10,108.7c0,4.6-1.7,7.2-4.7,7.2c-2.7,0-4.5-2.5-4.5-7c0-4.6,2-7.1,4.7-7.1C8.4,101.8,10,104.4,10,108.7z
		 M2.6,108.9c0,3.5,1.1,5.6,2.8,5.6c1.9,0,2.8-2.2,2.8-5.7c0-3.4-0.9-5.6-2.8-5.6C3.8,103.3,2.6,105.2,2.6,108.9z"/>
	<path fill="#FFFFFF" d="M15.7,103.8L15.7,103.8l-2.4,1.3l-0.4-1.4l3-1.6h1.6v13.6h-1.8V103.8z"/>
	<path fill="#FFFFFF" d="M26.5,103.8L26.5,103.8l-2.4,1.3l-0.4-1.4l3-1.6h1.6v13.6h-1.8V103.8z"/>
	<path fill="#FFFFFF" d="M42.3,108.7c0,4.6-1.7,7.2-4.7,7.2c-2.7,0-4.5-2.5-4.5-7c0-4.6,2-7.1,4.7-7.1
		C40.7,101.8,42.3,104.4,42.3,108.7z M34.9,108.9c0,3.5,1.1,5.6,2.8,5.6c1.9,0,2.8-2.2,2.8-5.7c0-3.4-0.9-5.6-2.8-5.6
		C36.1,103.3,34.9,105.2,34.9,108.9z"/>
	<path fill="#FFFFFF" d="M48,103.8L48,103.8l-2.4,1.3l-0.4-1.4l3-1.6h1.6v13.6H48V103.8z"/>
	<path fill="#FFFFFF" d="M63.9,108.7c0,4.6-1.7,7.2-4.7,7.2c-2.7,0-4.5-2.5-4.5-7c0-4.6,2-7.1,4.7-7.1
		C62.2,101.8,63.9,104.4,63.9,108.7z M56.5,108.9c0,3.5,1.1,5.6,2.8,5.6c1.9,0,2.8-2.2,2.8-5.7c0-3.4-0.9-5.6-2.8-5.6
		C57.6,103.3,56.5,105.2,56.5,108.9z"/>
	<path fill="#FFFFFF" d="M74.6,108.7c0,4.6-1.7,7.2-4.7,7.2c-2.7,0-4.5-2.5-4.5-7c0-4.6,2-7.1,4.7-7.1
		C73,101.8,74.6,104.4,74.6,108.7z M67.2,108.9c0,3.5,1.1,5.6,2.8,5.6c1.9,0,2.8-2.2,2.8-5.7c0-3.4-0.9-5.6-2.8-5.6
		C68.4,103.3,67.2,105.2,67.2,108.9z"/>
	<path fill="#FFFFFF" d="M80.4,103.8L80.4,103.8l-2.4,1.3l-0.4-1.4l3-1.6h1.6v13.6h-1.8V103.8z"/>
	<path fill="#FFFFFF" d="M100.6,108.7c0,4.6-1.7,7.2-4.7,7.2c-2.7,0-4.5-2.5-4.5-7c0-4.6,2-7.1,4.7-7.1
		C99,101.8,100.6,104.4,100.6,108.7z M93.2,108.9c0,3.5,1.1,5.6,2.8,5.6c1.9,0,2.8-2.2,2.8-5.7c0-3.4-0.9-5.6-2.8-5.6
		C94.4,103.3,93.2,105.2,93.2,108.9z"/>
	<path fill="#FFFFFF" d="M106.4,103.8L106.4,103.8l-2.4,1.3l-0.4-1.4l3-1.6h1.6v13.6h-1.8V103.8z"/>
	<path fill="#FFFFFF" d="M117.1,103.8L117.1,103.8l-2.4,1.3l-0.4-1.4l3-1.6h1.6v13.6h-1.8V103.8z"/>
	<path fill="#FFFFFF" d="M133,108.7c0,4.6-1.7,7.2-4.7,7.2c-2.7,0-4.5-2.5-4.5-7c0-4.6,2-7.1,4.7-7.1
		C131.3,101.8,133,104.4,133,108.7z M125.6,108.9c0,3.5,1.1,5.6,2.8,5.6c1.9,0,2.8-2.2,2.8-5.7c0-3.4-0.9-5.6-2.8-5.6
		C126.7,103.3,125.6,105.2,125.6,108.9z"/>
	<path fill="#FFFFFF" d="M138.7,103.8L138.7,103.8l-2.4,1.3l-0.4-1.4l3-1.6h1.6v13.6h-1.8V103.8z"/>
	<path fill="#FFFFFF" d="M149.4,103.8L149.4,103.8l-2.4,1.3l-0.4-1.4l3-1.6h1.6v13.6h-1.8V103.8z"/>
	<path fill="#FFFFFF" d="M160.2,103.8L160.2,103.8l-2.4,1.3l-0.4-1.4l3-1.6h1.6v13.6h-1.8V103.8z"/>
	<path fill="#FFFFFF" d="M176.1,108.7c0,4.6-1.7,7.2-4.7,7.2c-2.7,0-4.5-2.5-4.5-7c0-4.6,2-7.1,4.7-7.1
		C174.4,101.8,176.1,104.4,176.1,108.7z M168.6,108.9c0,3.5,1.1,5.6,2.8,5.6c1.9,0,2.8-2.2,2.8-5.7c0-3.4-0.9-5.6-2.8-5.6
		C169.8,103.3,168.6,105.2,168.6,108.9z"/>
	<path fill="#FFFFFF" d="M191.3,108.7c0,4.6-1.7,7.2-4.7,7.2c-2.7,0-4.5-2.5-4.5-7c0-4.6,2-7.1,4.7-7.1
		C189.6,101.8,191.3,104.4,191.3,108.7z M183.9,108.9c0,3.5,1.1,5.6,2.8,5.6c1.9,0,2.8-2.2,2.8-5.7c0-3.4-0.9-5.6-2.8-5.6
		C185,103.3,183.9,105.2,183.9,108.9z"/>
	<path fill="#FFFFFF" d="M197,103.8L197,103.8l-2.4,1.3l-0.4-1.4l3-1.6h1.6v13.6H197V103.8z"/>
	<path fill="#FFFFFF" d="M207.8,103.8L207.8,103.8l-2.4,1.3l-0.4-1.4l3-1.6h1.6v13.6h-1.8V103.8z"/>
	<path fill="#FFFFFF" d="M223.6,108.7c0,4.6-1.7,7.2-4.7,7.2c-2.7,0-4.5-2.5-4.5-7c0-4.6,2-7.1,4.7-7.1
		C222,101.8,223.6,104.4,223.6,108.7z M216.2,108.9c0,3.5,1.1,5.6,2.8,5.6c1.9,0,2.8-2.2,2.8-5.7c0-3.4-0.9-5.6-2.8-5.6
		C217.4,103.3,216.2,105.2,216.2,108.9z"/>
	<path fill="#FFFFFF" d="M234.4,108.7c0,4.6-1.7,7.2-4.7,7.2c-2.7,0-4.5-2.5-4.5-7c0-4.6,2-7.1,4.7-7.1
		C232.7,101.8,234.4,104.4,234.4,108.7z M227,108.9c0,3.5,1.1,5.6,2.8,5.6c1.9,0,2.8-2.2,2.8-5.7c0-3.4-0.9-5.6-2.8-5.6
		C228.1,103.3,227,105.2,227,108.9z"/>
	<path fill="#FFFFFF" d="M240.1,103.8L240.1,103.8l-2.4,1.3l-0.4-1.4l3-1.6h1.6v13.6h-1.8V103.8z"/>
	<path fill="#FFFFFF" d="M250.9,103.8L250.9,103.8l-2.4,1.3l-0.4-1.4l3-1.6h1.6v13.6h-1.8V103.8z"/>
	<path fill="#FFFFFF" d="M261.6,103.8L261.6,103.8l-2.4,1.3l-0.4-1.4l3-1.6h1.6v13.6h-1.8V103.8z"/>
	<path fill="#FFFFFF" d="M281.9,108.7c0,4.6-1.7,7.2-4.7,7.2c-2.7,0-4.5-2.5-4.5-7c0-4.6,2-7.1,4.7-7.1
		C280.3,101.8,281.9,104.4,281.9,108.7z M274.5,108.9c0,3.5,1.1,5.6,2.8,5.6c1.9,0,2.8-2.2,2.8-5.7c0-3.4-0.9-5.6-2.8-5.6
		C275.7,103.3,274.5,105.2,274.5,108.9z"/>
	<path fill="#FFFFFF" d="M292.7,108.7c0,4.6-1.7,7.2-4.7,7.2c-2.7,0-4.5-2.5-4.5-7c0-4.6,2-7.1,4.7-7.1
		C291,101.8,292.7,104.4,292.7,108.7z M285.3,108.9c0,3.5,1.1,5.6,2.8,5.6c1.9,0,2.8-2.2,2.8-5.7c0-3.4-0.9-5.6-2.8-5.6
		C286.4,103.3,285.3,105.2,285.3,108.9z"/>
	<path fill="#FFFFFF" d="M298.4,103.8L298.4,103.8l-2.4,1.3l-0.4-1.4l3-1.6h1.6v13.6h-1.8V103.8z"/>
	<path fill="#FFFFFF" d="M314.2,108.7c0,4.6-1.7,7.2-4.7,7.2c-2.7,0-4.5-2.5-4.5-7c0-4.6,2-7.1,4.7-7.1
		C312.6,101.8,314.2,104.4,314.2,108.7z M306.8,108.9c0,3.5,1.1,5.6,2.8,5.6c1.9,0,2.8-2.2,2.8-5.7c0-3.4-0.9-5.6-2.8-5.6
		C308,103.3,306.8,105.2,306.8,108.9z"/>
	<path fill="#FFFFFF" d="M325,108.7c0,4.6-1.7,7.2-4.7,7.2c-2.7,0-4.5-2.5-4.5-7c0-4.6,2-7.1,4.7-7.1
		C323.4,101.8,325,104.4,325,108.7z M317.6,108.9c0,3.5,1.1,5.6,2.8,5.6c1.9,0,2.8-2.2,2.8-5.7c0-3.4-0.9-5.6-2.8-5.6
		C318.8,103.3,317.6,105.2,317.6,108.9z"/>
	<path fill="#FFFFFF" d="M335.8,108.7c0,4.6-1.7,7.2-4.7,7.2c-2.7,0-4.5-2.5-4.5-7c0-4.6,2-7.1,4.7-7.1
		C334.1,101.8,335.8,104.4,335.8,108.7z M328.4,108.9c0,3.5,1.1,5.6,2.8,5.6c1.9,0,2.8-2.2,2.8-5.7c0-3.4-0.9-5.6-2.8-5.6
		C329.5,103.3,328.4,105.2,328.4,108.9z"/>
	<path fill="#FFFFFF" d="M346.5,108.7c0,4.6-1.7,7.2-4.7,7.2c-2.7,0-4.5-2.5-4.5-7c0-4.6,2-7.1,4.7-7.1
		C344.9,101.8,346.5,104.4,346.5,108.7z M339.1,108.9c0,3.5,1.1,5.6,2.8,5.6c1.9,0,2.8-2.2,2.8-5.7c0-3.4-0.9-5.6-2.8-5.6
		C340.3,103.3,339.1,105.2,339.1,108.9z"/>
	<path fill="#FFFFFF" d="M357.3,108.7c0,4.6-1.7,7.2-4.7,7.2c-2.7,0-4.5-2.5-4.5-7c0-4.6,2-7.1,4.7-7.1
		C355.7,101.8,357.3,104.4,357.3,108.7z M349.9,108.9c0,3.5,1.1,5.6,2.8,5.6c1.9,0,2.8-2.2,2.8-5.7c0-3.4-0.9-5.6-2.8-5.6
		C351.1,103.3,349.9,105.2,349.9,108.9z"/>
	<path fill="#FFFFFF" d="M372.5,108.7c0,4.6-1.7,7.2-4.7,7.2c-2.7,0-4.5-2.5-4.5-7c0-4.6,2-7.1,4.7-7.1
		C370.9,101.8,372.5,104.4,372.5,108.7z M365.1,108.9c0,3.5,1.1,5.6,2.8,5.6c1.9,0,2.8-2.2,2.8-5.7c0-3.4-0.9-5.6-2.8-5.6
		C366.3,103.3,365.1,105.2,365.1,108.9z"/>
	<path fill="#FFFFFF" d="M378.3,103.8L378.3,103.8l-2.4,1.3l-0.4-1.4l3-1.6h1.6v13.6h-1.8V103.8z"/>
	<path fill="#FFFFFF" d="M389,103.8L389,103.8l-2.4,1.3l-0.4-1.4l3-1.6h1.6v13.6H389V103.8z"/>
	<path fill="#FFFFFF" d="M399.8,103.8L399.8,103.8l-2.4,1.3l-0.4-1.4l3-1.6h1.6v13.6h-1.8V103.8z"/>
	<path fill="#FFFFFF" d="M415.6,108.7c0,4.6-1.7,7.2-4.7,7.2c-2.7,0-4.5-2.5-4.5-7c0-4.6,2-7.1,4.7-7.1
		C414,101.8,415.6,104.4,415.6,108.7z M408.2,108.9c0,3.5,1.1,5.6,2.8,5.6c1.9,0,2.8-2.2,2.8-5.7c0-3.4-0.9-5.6-2.8-5.6
		C409.4,103.3,408.2,105.2,408.2,108.9z"/>
	<path fill="#FFFFFF" d="M421.3,103.8L421.3,103.8l-2.4,1.3l-0.4-1.4l3-1.6h1.6v13.6h-1.8V103.8z"/>
	<path fill="#FFFFFF" d="M437.2,108.7c0,4.6-1.7,7.2-4.7,7.2c-2.7,0-4.5-2.5-4.5-7c0-4.6,2-7.1,4.7-7.1
		C435.5,101.8,437.2,104.4,437.2,108.7z M429.8,108.9c0,3.5,1.1,5.6,2.8,5.6c1.9,0,2.8-2.2,2.8-5.7c0-3.4-0.9-5.6-2.8-5.6
		C430.9,103.3,429.8,105.2,429.8,108.9z"/>
	<path fill="#FFFFFF" d="M447.9,108.7c0,4.6-1.7,7.2-4.7,7.2c-2.7,0-4.5-2.5-4.5-7c0-4.6,2-7.1,4.7-7.1
		C446.3,101.8,447.9,104.4,447.9,108.7z M440.5,108.9c0,3.5,1.1,5.6,2.8,5.6c1.9,0,2.8-2.2,2.8-5.7c0-3.4-0.9-5.6-2.8-5.6
		C441.7,103.3,440.5,105.2,440.5,108.9z"/>
	<path fill="#FFFFFF" d="M10,133.9c0,4.6-1.7,7.2-4.7,7.2c-2.7,0-4.5-2.5-4.5-7c0-4.6,2-7.1,4.7-7.1C8.4,127,10,129.6,10,133.9z
		 M2.6,134.1c0,3.5,1.1,5.6,2.8,5.6c1.9,0,2.8-2.2,2.8-5.7c0-3.4-0.9-5.6-2.8-5.6C3.8,128.5,2.6,130.4,2.6,134.1z"/>
	<path fill="#FFFFFF" d="M15.7,129L15.7,129l-2.4,1.3l-0.4-1.4l3-1.6h1.6v13.6h-1.8V129z"/>
	<path fill="#FFFFFF" d="M26.5,129L26.5,129l-2.4,1.3l-0.4-1.4l3-1.6h1.6v13.6h-1.8V129z"/>
	<path fill="#FFFFFF" d="M42.3,133.9c0,4.6-1.7,7.2-4.7,7.2c-2.7,0-4.5-2.5-4.5-7c0-4.6,2-7.1,4.7-7.1
		C40.7,127,42.3,129.6,42.3,133.9z M34.9,134.1c0,3.5,1.1,5.6,2.8,5.6c1.9,0,2.8-2.2,2.8-5.7c0-3.4-0.9-5.6-2.8-5.6
		C36.1,128.5,34.9,130.4,34.9,134.1z"/>
	<path fill="#FFFFFF" d="M48,129L48,129l-2.4,1.3l-0.4-1.4l3-1.6h1.6v13.6H48V129z"/>
	<path fill="#FFFFFF" d="M58.8,129L58.8,129l-2.4,1.3l-0.4-1.4l3-1.6h1.6v13.6h-1.8V129z"/>
	<path fill="#FFFFFF" d="M69.6,129L69.6,129l-2.4,1.3l-0.4-1.4l3-1.6h1.6v13.6h-1.8V129z"/>
	<path fill="#FFFFFF" d="M80.4,129L80.4,129l-2.4,1.3l-0.4-1.4l3-1.6h1.6v13.6h-1.8V129z"/>
	<path fill="#FFFFFF" d="M100.6,133.9c0,4.6-1.7,7.2-4.7,7.2c-2.7,0-4.5-2.5-4.5-7c0-4.6,2-7.1,4.7-7.1
		C99,127,100.6,129.6,100.6,133.9z M93.2,134.1c0,3.5,1.1,5.6,2.8,5.6c1.9,0,2.8-2.2,2.8-5.7c0-3.4-0.9-5.6-2.8-5.6
		C94.4,128.5,93.2,130.4,93.2,134.1z"/>
	<path fill="#FFFFFF" d="M111.4,133.9c0,4.6-1.7,7.2-4.7,7.2c-2.7,0-4.5-2.5-4.5-7c0-4.6,2-7.1,4.7-7.1
		C109.8,127,111.4,129.6,111.4,133.9z M104,134.1c0,3.5,1.1,5.6,2.8,5.6c1.9,0,2.8-2.2,2.8-5.7c0-3.4-0.9-5.6-2.8-5.6
		C105.2,128.5,104,130.4,104,134.1z"/>
	<path fill="#FFFFFF" d="M117.1,129L117.1,129l-2.4,1.3l-0.4-1.4l3-1.6h1.6v13.6h-1.8V129z"/>
	<path fill="#FFFFFF" d="M133,133.9c0,4.6-1.7,7.2-4.7,7.2c-2.7,0-4.5-2.5-4.5-7c0-4.6,2-7.1,4.7-7.1C131.3,127,133,129.6,133,133.9
		z M125.6,134.1c0,3.5,1.1,5.6,2.8,5.6c1.9,0,2.8-2.2,2.8-5.7c0-3.4-0.9-5.6-2.8-5.6C126.7,128.5,125.6,130.4,125.6,134.1z"/>
	<path fill="#FFFFFF" d="M143.7,133.9c0,4.6-1.7,7.2-4.7,7.2c-2.7,0-4.5-2.5-4.5-7c0-4.6,2-7.1,4.7-7.1
		C142.1,127,143.7,129.6,143.7,133.9z M136.3,134.1c0,3.5,1.1,5.6,2.8,5.6c1.9,0,2.8-2.2,2.8-5.7c0-3.4-0.9-5.6-2.8-5.6
		C137.5,128.5,136.3,130.4,136.3,134.1z"/>
	<path fill="#FFFFFF" d="M154.5,133.9c0,4.6-1.7,7.2-4.7,7.2c-2.7,0-4.5-2.5-4.5-7c0-4.6,2-7.1,4.7-7.1
		C152.9,127,154.5,129.6,154.5,133.9z M147.1,134.1c0,3.5,1.1,5.6,2.8,5.6c1.9,0,2.8-2.2,2.8-5.7c0-3.4-0.9-5.6-2.8-5.6
		C148.3,128.5,147.1,130.4,147.1,134.1z"/>
	<path fill="#FFFFFF" d="M165.3,133.9c0,4.6-1.7,7.2-4.7,7.2c-2.7,0-4.5-2.5-4.5-7c0-4.6,2-7.1,4.7-7.1
		C163.6,127,165.3,129.6,165.3,133.9z M157.9,134.1c0,3.5,1.1,5.6,2.8,5.6c1.9,0,2.8-2.2,2.8-5.7c0-3.4-0.9-5.6-2.8-5.6
		C159,128.5,157.9,130.4,157.9,134.1z"/>
	<path fill="#FFFFFF" d="M176.1,133.9c0,4.6-1.7,7.2-4.7,7.2c-2.7,0-4.5-2.5-4.5-7c0-4.6,2-7.1,4.7-7.1
		C174.4,127,176.1,129.6,176.1,133.9z M168.6,134.1c0,3.5,1.1,5.6,2.8,5.6c1.9,0,2.8-2.2,2.8-5.7c0-3.4-0.9-5.6-2.8-5.6
		C169.8,128.5,168.6,130.4,168.6,134.1z"/>
	<path fill="#FFFFFF" d="M191.3,133.9c0,4.6-1.7,7.2-4.7,7.2c-2.7,0-4.5-2.5-4.5-7c0-4.6,2-7.1,4.7-7.1
		C189.6,127,191.3,129.6,191.3,133.9z M183.9,134.1c0,3.5,1.1,5.6,2.8,5.6c1.9,0,2.8-2.2,2.8-5.7c0-3.4-0.9-5.6-2.8-5.6
		C185,128.5,183.9,130.4,183.9,134.1z"/>
	<path fill="#FFFFFF" d="M197,129L197,129l-2.4,1.3l-0.4-1.4l3-1.6h1.6v13.6H197V129z"/>
	<path fill="#FFFFFF" d="M207.8,129L207.8,129l-2.4,1.3l-0.4-1.4l3-1.6h1.6v13.6h-1.8V129z"/>
	<path fill="#FFFFFF" d="M218.5,129L218.5,129l-2.4,1.3l-0.4-1.4l3-1.6h1.6v13.6h-1.8V129z"/>
	<path fill="#FFFFFF" d="M234.4,133.9c0,4.6-1.7,7.2-4.7,7.2c-2.7,0-4.5-2.5-4.5-7c0-4.6,2-7.1,4.7-7.1
		C232.7,127,234.4,129.6,234.4,133.9z M227,134.1c0,3.5,1.1,5.6,2.8,5.6c1.9,0,2.8-2.2,2.8-5.7c0-3.4-0.9-5.6-2.8-5.6
		C228.1,128.5,227,130.4,227,134.1z"/>
	<path fill="#FFFFFF" d="M245.1,133.9c0,4.6-1.7,7.2-4.7,7.2c-2.7,0-4.5-2.5-4.5-7c0-4.6,2-7.1,4.7-7.1
		C243.5,127,245.1,129.6,245.1,133.9z M237.7,134.1c0,3.5,1.1,5.6,2.8,5.6c1.9,0,2.8-2.2,2.8-5.7c0-3.4-0.9-5.6-2.8-5.6
		C238.9,128.5,237.7,130.4,237.7,134.1z"/>
	<path fill="#FFFFFF" d="M250.9,129L250.9,129l-2.4,1.3l-0.4-1.4l3-1.6h1.6v13.6h-1.8V129z"/>
	<path fill="#FFFFFF" d="M261.6,129L261.6,129l-2.4,1.3l-0.4-1.4l3-1.6h1.6v13.6h-1.8V129z"/>
	<path fill="#FFFFFF" d="M281.9,133.9c0,4.6-1.7,7.2-4.7,7.2c-2.7,0-4.5-2.5-4.5-7c0-4.6,2-7.1,4.7-7.1
		C280.3,127,281.9,129.6,281.9,133.9z M274.5,134.1c0,3.5,1.1,5.6,2.8,5.6c1.9,0,2.8-2.2,2.8-5.7c0-3.4-0.9-5.6-2.8-5.6
		C275.7,128.5,274.5,130.4,274.5,134.1z"/>
	<path fill="#FFFFFF" d="M287.6,129L287.6,129l-2.4,1.3l-0.4-1.4l3-1.6h1.6v13.6h-1.8V129z"/>
	<path fill="#FFFFFF" d="M298.4,129L298.4,129l-2.4,1.3l-0.4-1.4l3-1.6h1.6v13.6h-1.8V129z"/>
	<path fill="#FFFFFF" d="M314.2,133.9c0,4.6-1.7,7.2-4.7,7.2c-2.7,0-4.5-2.5-4.5-7c0-4.6,2-7.1,4.7-7.1
		C312.6,127,314.2,129.6,314.2,133.9z M306.8,134.1c0,3.5,1.1,5.6,2.8,5.6c1.9,0,2.8-2.2,2.8-5.7c0-3.4-0.9-5.6-2.8-5.6
		C308,128.5,306.8,130.4,306.8,134.1z"/>
	<path fill="#FFFFFF" d="M325,133.9c0,4.6-1.7,7.2-4.7,7.2c-2.7,0-4.5-2.5-4.5-7c0-4.6,2-7.1,4.7-7.1C323.4,127,325,129.6,325,133.9
		z M317.6,134.1c0,3.5,1.1,5.6,2.8,5.6c1.9,0,2.8-2.2,2.8-5.7c0-3.4-0.9-5.6-2.8-5.6C318.8,128.5,317.6,130.4,317.6,134.1z"/>
	<path fill="#FFFFFF" d="M330.7,129L330.7,129l-2.4,1.3l-0.4-1.4l3-1.6h1.6v13.6h-1.8V129z"/>
	<path fill="#FFFFFF" d="M346.5,133.9c0,4.6-1.7,7.2-4.7,7.2c-2.7,0-4.5-2.5-4.5-7c0-4.6,2-7.1,4.7-7.1
		C344.9,127,346.5,129.6,346.5,133.9z M339.1,134.1c0,3.5,1.1,5.6,2.8,5.6c1.9,0,2.8-2.2,2.8-5.7c0-3.4-0.9-5.6-2.8-5.6
		C340.3,128.5,339.1,130.4,339.1,134.1z"/>
	<path fill="#FFFFFF" d="M352.3,129L352.3,129l-2.4,1.3l-0.4-1.4l3-1.6h1.6v13.6h-1.8V129z"/>
	<path fill="#FFFFFF" d="M372.5,133.9c0,4.6-1.7,7.2-4.7,7.2c-2.7,0-4.5-2.5-4.5-7c0-4.6,2-7.1,4.7-7.1
		C370.9,127,372.5,129.6,372.5,133.9z M365.1,134.1c0,3.5,1.1,5.6,2.8,5.6c1.9,0,2.8-2.2,2.8-5.7c0-3.4-0.9-5.6-2.8-5.6
		C366.3,128.5,365.1,130.4,365.1,134.1z"/>
	<path fill="#FFFFFF" d="M378.3,129L378.3,129l-2.4,1.3l-0.4-1.4l3-1.6h1.6v13.6h-1.8V129z"/>
	<path fill="#FFFFFF" d="M389,129L389,129l-2.4,1.3l-0.4-1.4l3-1.6h1.6v13.6H389V129z"/>
	<path fill="#FFFFFF" d="M404.9,133.9c0,4.6-1.7,7.2-4.7,7.2c-2.7,0-4.5-2.5-4.5-7c0-4.6,2-7.1,4.7-7.1
		C403.2,127,404.9,129.6,404.9,133.9z M397.4,134.1c0,3.5,1.1,5.6,2.8,5.6c1.9,0,2.8-2.2,2.8-5.7c0-3.4-0.9-5.6-2.8-5.6
		C398.6,128.5,397.4,130.4,397.4,134.1z"/>
	<path fill="#FFFFFF" d="M415.6,133.9c0,4.6-1.7,7.2-4.7,7.2c-2.7,0-4.5-2.5-4.5-7c0-4.6,2-7.1,4.7-7.1
		C414,127,415.6,129.6,415.6,133.9z M408.2,134.1c0,3.5,1.1,5.6,2.8,5.6c1.9,0,2.8-2.2,2.8-5.7c0-3.4-0.9-5.6-2.8-5.6
		C409.4,128.5,408.2,130.4,408.2,134.1z"/>
	<path fill="#FFFFFF" d="M421.3,129L421.3,129l-2.4,1.3l-0.4-1.4l3-1.6h1.6v13.6h-1.8V129z"/>
	<path fill="#FFFFFF" d="M437.2,133.9c0,4.6-1.7,7.2-4.7,7.2c-2.7,0-4.5-2.5-4.5-7c0-4.6,2-7.1,4.7-7.1
		C435.5,127,437.2,129.6,437.2,133.9z M429.8,134.1c0,3.5,1.1,5.6,2.8,5.6c1.9,0,2.8-2.2,2.8-5.7c0-3.4-0.9-5.6-2.8-5.6
		C430.9,128.5,429.8,130.4,429.8,134.1z"/>
	<path fill="#FFFFFF" d="M442.9,129L442.9,129l-2.4,1.3l-0.4-1.4l3-1.6h1.6v13.6h-1.8V129z"/>
	<path fill="#FFFFFF" d="M10,159.1c0,4.6-1.7,7.2-4.7,7.2c-2.7,0-4.5-2.5-4.5-7c0-4.6,2-7.1,4.7-7.1C8.4,152.2,10,154.8,10,159.1z
		 M2.6,159.3c0,3.5,1.1,5.6,2.8,5.6c1.9,0,2.8-2.2,2.8-5.7c0-3.4-0.9-5.6-2.8-5.6C3.8,153.7,2.6,155.6,2.6,159.3z"/>
	<path fill="#FFFFFF" d="M20.8,159.1c0,4.6-1.7,7.2-4.7,7.2c-2.7,0-4.5-2.5-4.5-7c0-4.6,2-7.1,4.7-7.1
		C19.1,152.2,20.8,154.8,20.8,159.1z M13.4,159.3c0,3.5,1.1,5.6,2.8,5.6c1.9,0,2.8-2.2,2.8-5.7c0-3.4-0.9-5.6-2.8-5.6
		C14.6,153.7,13.4,155.6,13.4,159.3z"/>
	<path fill="#FFFFFF" d="M26.5,154.2L26.5,154.2l-2.4,1.3l-0.4-1.4l3-1.6h1.6v13.6h-1.8V154.2z"/>
	<path fill="#FFFFFF" d="M42.3,159.1c0,4.6-1.7,7.2-4.7,7.2c-2.7,0-4.5-2.5-4.5-7c0-4.6,2-7.1,4.7-7.1
		C40.7,152.2,42.3,154.8,42.3,159.1z M34.9,159.3c0,3.5,1.1,5.6,2.8,5.6c1.9,0,2.8-2.2,2.8-5.7c0-3.4-0.9-5.6-2.8-5.6
		C36.1,153.7,34.9,155.6,34.9,159.3z"/>
	<path fill="#FFFFFF" d="M53.1,159.1c0,4.6-1.7,7.2-4.7,7.2c-2.7,0-4.5-2.5-4.5-7c0-4.6,2-7.1,4.7-7.1
		C51.5,152.2,53.1,154.8,53.1,159.1z M45.7,159.3c0,3.5,1.1,5.6,2.8,5.6c1.9,0,2.8-2.2,2.8-5.7c0-3.4-0.9-5.6-2.8-5.6
		C46.9,153.7,45.7,155.6,45.7,159.3z"/>
	<path fill="#FFFFFF" d="M63.9,159.1c0,4.6-1.7,7.2-4.7,7.2c-2.7,0-4.5-2.5-4.5-7c0-4.6,2-7.1,4.7-7.1
		C62.2,152.2,63.9,154.8,63.9,159.1z M56.5,159.3c0,3.5,1.1,5.6,2.8,5.6c1.9,0,2.8-2.2,2.8-5.7c0-3.4-0.9-5.6-2.8-5.6
		C57.6,153.7,56.5,155.6,56.5,159.3z"/>
	<path fill="#FFFFFF" d="M74.6,159.1c0,4.6-1.7,7.2-4.7,7.2c-2.7,0-4.5-2.5-4.5-7c0-4.6,2-7.1,4.7-7.1
		C73,152.2,74.6,154.8,74.6,159.1z M67.2,159.3c0,3.5,1.1,5.6,2.8,5.6c1.9,0,2.8-2.2,2.8-5.7c0-3.4-0.9-5.6-2.8-5.6
		C68.4,153.7,67.2,155.6,67.2,159.3z"/>
	<path fill="#FFFFFF" d="M85.4,159.1c0,4.6-1.7,7.2-4.7,7.2c-2.7,0-4.5-2.5-4.5-7c0-4.6,2-7.1,4.7-7.1
		C83.8,152.2,85.4,154.8,85.4,159.1z M78,159.3c0,3.5,1.1,5.6,2.8,5.6c1.9,0,2.8-2.2,2.8-5.7c0-3.4-0.9-5.6-2.8-5.6
		C79.2,153.7,78,155.6,78,159.3z"/>
	<path fill="#FFFFFF" d="M100.6,159.1c0,4.6-1.7,7.2-4.7,7.2c-2.7,0-4.5-2.5-4.5-7c0-4.6,2-7.1,4.7-7.1
		C99,152.2,100.6,154.8,100.6,159.1z M93.2,159.3c0,3.5,1.1,5.6,2.8,5.6c1.9,0,2.8-2.2,2.8-5.7c0-3.4-0.9-5.6-2.8-5.6
		C94.4,153.7,93.2,155.6,93.2,159.3z"/>
	<path fill="#FFFFFF" d="M106.4,154.2L106.4,154.2l-2.4,1.3l-0.4-1.4l3-1.6h1.6v13.6h-1.8V154.2z"/>
	<path fill="#FFFFFF" d="M117.1,154.2L117.1,154.2l-2.4,1.3l-0.4-1.4l3-1.6h1.6v13.6h-1.8V154.2z"/>
	<path fill="#FFFFFF" d="M133,159.1c0,4.6-1.7,7.2-4.7,7.2c-2.7,0-4.5-2.5-4.5-7c0-4.6,2-7.1,4.7-7.1
		C131.3,152.2,133,154.8,133,159.1z M125.6,159.3c0,3.5,1.1,5.6,2.8,5.6c1.9,0,2.8-2.2,2.8-5.7c0-3.4-0.9-5.6-2.8-5.6
		C126.7,153.7,125.6,155.6,125.6,159.3z"/>
	<path fill="#FFFFFF" d="M138.7,154.2L138.7,154.2l-2.4,1.3l-0.4-1.4l3-1.6h1.6v13.6h-1.8V154.2z"/>
	<path fill="#FFFFFF" d="M154.5,159.1c0,4.6-1.7,7.2-4.7,7.2c-2.7,0-4.5-2.5-4.5-7c0-4.6,2-7.1,4.7-7.1
		C152.9,152.2,154.5,154.8,154.5,159.1z M147.1,159.3c0,3.5,1.1,5.6,2.8,5.6c1.9,0,2.8-2.2,2.8-5.7c0-3.4-0.9-5.6-2.8-5.6
		C148.3,153.7,147.1,155.6,147.1,159.3z"/>
	<path fill="#FFFFFF" d="M165.3,159.1c0,4.6-1.7,7.2-4.7,7.2c-2.7,0-4.5-2.5-4.5-7c0-4.6,2-7.1,4.7-7.1
		C163.6,152.2,165.3,154.8,165.3,159.1z M157.9,159.3c0,3.5,1.1,5.6,2.8,5.6c1.9,0,2.8-2.2,2.8-5.7c0-3.4-0.9-5.6-2.8-5.6
		C159,153.7,157.9,155.6,157.9,159.3z"/>
	<path fill="#FFFFFF" d="M176.1,159.1c0,4.6-1.7,7.2-4.7,7.2c-2.7,0-4.5-2.5-4.5-7c0-4.6,2-7.1,4.7-7.1
		C174.4,152.2,176.1,154.8,176.1,159.1z M168.6,159.3c0,3.5,1.1,5.6,2.8,5.6c1.9,0,2.8-2.2,2.8-5.7c0-3.4-0.9-5.6-2.8-5.6
		C169.8,153.7,168.6,155.6,168.6,159.3z"/>
	<path fill="#FFFFFF" d="M191.3,159.1c0,4.6-1.7,7.2-4.7,7.2c-2.7,0-4.5-2.5-4.5-7c0-4.6,2-7.1,4.7-7.1
		C189.6,152.2,191.3,154.8,191.3,159.1z M183.9,159.3c0,3.5,1.1,5.6,2.8,5.6c1.9,0,2.8-2.2,2.8-5.7c0-3.4-0.9-5.6-2.8-5.6
		C185,153.7,183.9,155.6,183.9,159.3z"/>
	<path fill="#FFFFFF" d="M197,154.2L197,154.2l-2.4,1.3l-0.4-1.4l3-1.6h1.6v13.6H197V154.2z"/>
	<path fill="#FFFFFF" d="M207.8,154.2L207.8,154.2l-2.4,1.3l-0.4-1.4l3-1.6h1.6v13.6h-1.8V154.2z"/>
	<path fill="#FFFFFF" d="M223.6,159.1c0,4.6-1.7,7.2-4.7,7.2c-2.7,0-4.5-2.5-4.5-7c0-4.6,2-7.1,4.7-7.1
		C222,152.2,223.6,154.8,223.6,159.1z M216.2,159.3c0,3.5,1.1,5.6,2.8,5.6c1.9,0,2.8-2.2,2.8-5.7c0-3.4-0.9-5.6-2.8-5.6
		C217.4,153.7,216.2,155.6,216.2,159.3z"/>
	<path fill="#FFFFFF" d="M234.4,159.1c0,4.6-1.7,7.2-4.7,7.2c-2.7,0-4.5-2.5-4.5-7c0-4.6,2-7.1,4.7-7.1
		C232.7,152.2,234.4,154.8,234.4,159.1z M227,159.3c0,3.5,1.1,5.6,2.8,5.6c1.9,0,2.8-2.2,2.8-5.7c0-3.4-0.9-5.6-2.8-5.6
		C228.1,153.7,227,155.6,227,159.3z"/>
	<path fill="#FFFFFF" d="M240.1,154.2L240.1,154.2l-2.4,1.3l-0.4-1.4l3-1.6h1.6v13.6h-1.8V154.2z"/>
	<path fill="#FFFFFF" d="M255.9,159.1c0,4.6-1.7,7.2-4.7,7.2c-2.7,0-4.5-2.5-4.5-7c0-4.6,2-7.1,4.7-7.1
		C254.3,152.2,255.9,154.8,255.9,159.1z M248.5,159.3c0,3.5,1.1,5.6,2.8,5.6c1.9,0,2.8-2.2,2.8-5.7c0-3.4-0.9-5.6-2.8-5.6
		C249.7,153.7,248.5,155.6,248.5,159.3z"/>
	<path fill="#FFFFFF" d="M261.6,154.2L261.6,154.2l-2.4,1.3l-0.4-1.4l3-1.6h1.6v13.6h-1.8V154.2z"/>
	<path fill="#FFFFFF" d="M281.9,159.1c0,4.6-1.7,7.2-4.7,7.2c-2.7,0-4.5-2.5-4.5-7c0-4.6,2-7.1,4.7-7.1
		C280.3,152.2,281.9,154.8,281.9,159.1z M274.5,159.3c0,3.5,1.1,5.6,2.8,5.6c1.9,0,2.8-2.2,2.8-5.7c0-3.4-0.9-5.6-2.8-5.6
		C275.7,153.7,274.5,155.6,274.5,159.3z"/>
	<path fill="#FFFFFF" d="M287.6,154.2L287.6,154.2l-2.4,1.3l-0.4-1.4l3-1.6h1.6v13.6h-1.8V154.2z"/>
	<path fill="#FFFFFF" d="M298.4,154.2L298.4,154.2l-2.4,1.3l-0.4-1.4l3-1.6h1.6v13.6h-1.8V154.2z"/>
	<path fill="#FFFFFF" d="M309.2,154.2L309.2,154.2l-2.4,1.3l-0.4-1.4l3-1.6h1.6v13.6h-1.8V154.2z"/>
	<path fill="#FFFFFF" d="M325,159.1c0,4.6-1.7,7.2-4.7,7.2c-2.7,0-4.5-2.5-4.5-7c0-4.6,2-7.1,4.7-7.1
		C323.4,152.2,325,154.8,325,159.1z M317.6,159.3c0,3.5,1.1,5.6,2.8,5.6c1.9,0,2.8-2.2,2.8-5.7c0-3.4-0.9-5.6-2.8-5.6
		C318.8,153.7,317.6,155.6,317.6,159.3z"/>
	<path fill="#FFFFFF" d="M335.8,159.1c0,4.6-1.7,7.2-4.7,7.2c-2.7,0-4.5-2.5-4.5-7c0-4.6,2-7.1,4.7-7.1
		C334.1,152.2,335.8,154.8,335.8,159.1z M328.4,159.3c0,3.5,1.1,5.6,2.8,5.6c1.9,0,2.8-2.2,2.8-5.7c0-3.4-0.9-5.6-2.8-5.6
		C329.5,153.7,328.4,155.6,328.4,159.3z"/>
	<path fill="#FFFFFF" d="M341.5,154.2L341.5,154.2l-2.4,1.3l-0.4-1.4l3-1.6h1.6v13.6h-1.8V154.2z"/>
	<path fill="#FFFFFF" d="M357.3,159.1c0,4.6-1.7,7.2-4.7,7.2c-2.7,0-4.5-2.5-4.5-7c0-4.6,2-7.1,4.7-7.1
		C355.7,152.2,357.3,154.8,357.3,159.1z M349.9,159.3c0,3.5,1.1,5.6,2.8,5.6c1.9,0,2.8-2.2,2.8-5.7c0-3.4-0.9-5.6-2.8-5.6
		C351.1,153.7,349.9,155.6,349.9,159.3z"/>
	<path fill="#FFFFFF" d="M372.5,159.1c0,4.6-1.7,7.2-4.7,7.2c-2.7,0-4.5-2.5-4.5-7c0-4.6,2-7.1,4.7-7.1
		C370.9,152.2,372.5,154.8,372.5,159.1z M365.1,159.3c0,3.5,1.1,5.6,2.8,5.6c1.9,0,2.8-2.2,2.8-5.7c0-3.4-0.9-5.6-2.8-5.6
		C366.3,153.7,365.1,155.6,365.1,159.3z"/>
	<path fill="#FFFFFF" d="M378.3,154.2L378.3,154.2l-2.4,1.3l-0.4-1.4l3-1.6h1.6v13.6h-1.8V154.2z"/>
	<path fill="#FFFFFF" d="M389,154.2L389,154.2l-2.4,1.3l-0.4-1.4l3-1.6h1.6v13.6H389V154.2z"/>
	<path fill="#FFFFFF" d="M404.9,159.1c0,4.6-1.7,7.2-4.7,7.2c-2.7,0-4.5-2.5-4.5-7c0-4.6,2-7.1,4.7-7.1
		C403.2,152.2,404.9,154.8,404.9,159.1z M397.4,159.3c0,3.5,1.1,5.6,2.8,5.6c1.9,0,2.8-2.2,2.8-5.7c0-3.4-0.9-5.6-2.8-5.6
		C398.6,153.7,397.4,155.6,397.4,159.3z"/>
	<path fill="#FFFFFF" d="M415.6,159.1c0,4.6-1.7,7.2-4.7,7.2c-2.7,0-4.5-2.5-4.5-7c0-4.6,2-7.1,4.7-7.1
		C414,152.2,415.6,154.8,415.6,159.1z M408.2,159.3c0,3.5,1.1,5.6,2.8,5.6c1.9,0,2.8-2.2,2.8-5.7c0-3.4-0.9-5.6-2.8-5.6
		C409.4,153.7,408.2,155.6,408.2,159.3z"/>
	<path fill="#FFFFFF" d="M421.3,154.2L421.3,154.2l-2.4,1.3l-0.4-1.4l3-1.6h1.6v13.6h-1.8V154.2z"/>
	<path fill="#FFFFFF" d="M437.2,159.1c0,4.6-1.7,7.2-4.7,7.2c-2.7,0-4.5-2.5-4.5-7c0-4.6,2-7.1,4.7-7.1
		C435.5,152.2,437.2,154.8,437.2,159.1z M429.8,159.3c0,3.5,1.1,5.6,2.8,5.6c1.9,0,2.8-2.2,2.8-5.7c0-3.4-0.9-5.6-2.8-5.6
		C430.9,153.7,429.8,155.6,429.8,159.3z"/>
	<path fill="#FFFFFF" d="M442.9,154.2L442.9,154.2l-2.4,1.3l-0.4-1.4l3-1.6h1.6v13.6h-1.8V154.2z"/>
</g>
</svg>
