<?xml version="1.0" encoding="utf-8"?>
<!-- Generator: Adobe Illustrator 18.0.0, SVG Export Plug-In . SVG Version: 6.00 Build 0)  -->
<!DOCTYPE svg PUBLIC "-//W3C//DTD SVG 1.1//EN" "http://www.w3.org/Graphics/SVG/1.1/DTD/svg11.dtd">
<svg version="1.1" id="Calque_1" xmlns="http://www.w3.org/2000/svg" xmlns:xlink="http://www.w3.org/1999/xlink" x="0px" y="0px"
	 viewBox="0 0 416.5 155.7" enable-background="new 0 0 416.5 155.7" xml:space="preserve">
<path opacity="0.4" fill="#FFFFFF" d="M3.7,7.3c2,0,3.7-1.6,3.7-3.7c0-2-1.6-3.7-3.7-3.7S0,1.6,0,3.7C0,5.7,1.6,7.3,3.7,7.3"/>
<path opacity="0.4" fill="#FFFFFF" d="M3.7,44.4c2,0,3.7-1.6,3.7-3.7c0-2-1.6-3.7-3.7-3.7S0,38.7,0,40.8C0,42.8,1.6,44.4,3.7,44.4"
	/>
<path opacity="0.4" fill="#FFFFFF" d="M3.7,81.5c2,0,3.7-1.6,3.7-3.7c0-2-1.6-3.7-3.7-3.7S0,75.8,0,77.8C0,79.9,1.6,81.5,3.7,81.5"
	/>
<path opacity="0.4" fill="#FFFFFF" d="M3.7,118.6c2,0,3.7-1.6,3.7-3.7c0-2-1.6-3.7-3.7-3.7S0,112.9,0,114.9
	C0,117,1.6,118.6,3.7,118.6"/>
<path opacity="0.4" fill="#FFFFFF" d="M3.7,155.7c2,0,3.7-1.6,3.7-3.7c0-2-1.6-3.7-3.7-3.7S0,150,0,152C0,154.1,1.6,155.7,3.7,155.7
	"/>
<path opacity="0.4" fill="#FFFFFF" d="M40.8,7.3c2,0,3.7-1.6,3.7-3.7c0-2-1.6-3.7-3.7-3.7c-2,0-3.7,1.6-3.7,3.7
	C37.1,5.7,38.7,7.3,40.8,7.3"/>
<path opacity="0.4" fill="#FFFFFF" d="M40.8,44.4c2,0,3.7-1.6,3.7-3.7c0-2-1.6-3.7-3.7-3.7c-2,0-3.7,1.6-3.7,3.7
	C37.1,42.8,38.7,44.4,40.8,44.4"/>
<path opacity="0.4" fill="#FFFFFF" d="M40.8,81.5c2,0,3.7-1.6,3.7-3.7c0-2-1.6-3.7-3.7-3.7c-2,0-3.7,1.6-3.7,3.7
	C37.1,79.9,38.7,81.5,40.8,81.5"/>
<path opacity="0.4" fill="#FFFFFF" d="M40.8,118.6c2,0,3.7-1.6,3.7-3.7c0-2-1.6-3.7-3.7-3.7c-2,0-3.7,1.6-3.7,3.7
	C37.1,117,38.7,118.6,40.8,118.6"/>
<path opacity="0.4" fill="#FFFFFF" d="M40.8,155.7c2,0,3.7-1.6,3.7-3.7c0-2-1.6-3.7-3.7-3.7c-2,0-3.7,1.6-3.7,3.7
	C37.1,154.1,38.7,155.7,40.8,155.7"/>
<path opacity="0.4" fill="#FFFFFF" d="M77.8,7.3c2,0,3.7-1.6,3.7-3.7c0-2-1.6-3.7-3.7-3.7c-2,0-3.7,1.6-3.7,3.7
	C74.2,5.7,75.8,7.3,77.8,7.3"/>
<path opacity="0.4" fill="#FFFFFF" d="M77.8,44.4c2,0,3.7-1.6,3.7-3.7c0-2-1.6-3.7-3.7-3.7c-2,0-3.7,1.6-3.7,3.7
	C74.2,42.8,75.8,44.4,77.8,44.4"/>
<path opacity="0.4" fill="#FFFFFF" d="M77.8,81.5c2,0,3.7-1.6,3.7-3.7c0-2-1.6-3.7-3.7-3.7c-2,0-3.7,1.6-3.7,3.7
	C74.2,79.9,75.8,81.5,77.8,81.5"/>
<path opacity="0.4" fill="#FFFFFF" d="M77.8,118.6c2,0,3.7-1.6,3.7-3.7c0-2-1.6-3.7-3.7-3.7c-2,0-3.7,1.6-3.7,3.7
	C74.2,117,75.8,118.6,77.8,118.6"/>
<path opacity="0.4" fill="#FFFFFF" d="M77.8,155.7c2,0,3.7-1.6,3.7-3.7c0-2-1.6-3.7-3.7-3.7c-2,0-3.7,1.6-3.7,3.7
	C74.2,154.1,75.8,155.7,77.8,155.7"/>
<path opacity="0.4" fill="#FFFFFF" d="M114.9,7.3c2,0,3.7-1.6,3.7-3.7c0-2-1.6-3.7-3.7-3.7c-2,0-3.7,1.6-3.7,3.7
	C111.3,5.7,112.9,7.3,114.9,7.3"/>
<path opacity="0.4" fill="#FFFFFF" d="M114.9,44.4c2,0,3.7-1.6,3.7-3.7c0-2-1.6-3.7-3.7-3.7c-2,0-3.7,1.6-3.7,3.7
	C111.3,42.8,112.9,44.4,114.9,44.4"/>
<path opacity="0.4" fill="#FFFFFF" d="M114.9,81.5c2,0,3.7-1.6,3.7-3.7c0-2-1.6-3.7-3.7-3.7c-2,0-3.7,1.6-3.7,3.7
	C111.3,79.9,112.9,81.5,114.9,81.5"/>
<path opacity="0.4" fill="#FFFFFF" d="M114.9,118.6c2,0,3.7-1.6,3.7-3.7c0-2-1.6-3.7-3.7-3.7c-2,0-3.7,1.6-3.7,3.7
	C111.3,117,112.9,118.6,114.9,118.6"/>
<path opacity="0.4" fill="#FFFFFF" d="M114.9,155.7c2,0,3.7-1.6,3.7-3.7c0-2-1.6-3.7-3.7-3.7c-2,0-3.7,1.6-3.7,3.7
	C111.3,154.1,112.9,155.7,114.9,155.7"/>
<path opacity="0.4" fill="#FFFFFF" d="M152,7.3c2,0,3.7-1.6,3.7-3.7c0-2-1.6-3.7-3.7-3.7c-2,0-3.7,1.6-3.7,3.7
	C148.3,5.7,150,7.3,152,7.3"/>
<path opacity="0.4" fill="#FFFFFF" d="M152,44.4c2,0,3.7-1.6,3.7-3.7c0-2-1.6-3.7-3.7-3.7c-2,0-3.7,1.6-3.7,3.7
	C148.3,42.8,150,44.4,152,44.4"/>
<path opacity="0.4" fill="#FFFFFF" d="M152,81.5c2,0,3.7-1.6,3.7-3.7c0-2-1.6-3.7-3.7-3.7c-2,0-3.7,1.6-3.7,3.7
	C148.3,79.9,150,81.5,152,81.5"/>
<path opacity="0.4" fill="#FFFFFF" d="M152,118.6c2,0,3.7-1.6,3.7-3.7c0-2-1.6-3.7-3.7-3.7c-2,0-3.7,1.6-3.7,3.7
	C148.3,117,150,118.6,152,118.6"/>
<path opacity="0.4" fill="#FFFFFF" d="M152,155.7c2,0,3.7-1.6,3.7-3.7c0-2-1.6-3.7-3.7-3.7c-2,0-3.7,1.6-3.7,3.7
	C148.3,154.1,150,155.7,152,155.7"/>
<path opacity="0.4" fill="#FFFFFF" d="M189.1,7.3c2,0,3.7-1.6,3.7-3.7c0-2-1.6-3.7-3.7-3.7c-2,0-3.7,1.6-3.7,3.7
	C185.4,5.7,187.1,7.3,189.1,7.3"/>
<path opacity="0.4" fill="#FFFFFF" d="M189.1,44.4c2,0,3.7-1.6,3.7-3.7c0-2-1.6-3.7-3.7-3.7c-2,0-3.7,1.6-3.7,3.7
	C185.4,42.8,187.1,44.4,189.1,44.4"/>
<path opacity="0.4" fill="#FFFFFF" d="M189.1,81.5c2,0,3.7-1.6,3.7-3.7c0-2-1.6-3.7-3.7-3.7c-2,0-3.7,1.6-3.7,3.7
	C185.4,79.9,187.1,81.5,189.1,81.5"/>
<path opacity="0.4" fill="#FFFFFF" d="M189.1,118.6c2,0,3.7-1.6,3.7-3.7c0-2-1.6-3.7-3.7-3.7c-2,0-3.7,1.6-3.7,3.7
	C185.4,117,187.1,118.6,189.1,118.6"/>
<path opacity="0.4" fill="#FFFFFF" d="M189.1,155.7c2,0,3.7-1.6,3.7-3.7c0-2-1.6-3.7-3.7-3.7c-2,0-3.7,1.6-3.7,3.7
	C185.4,154.1,187.1,155.7,189.1,155.7"/>
<path opacity="0.4" fill="#FFFFFF" d="M226.2,7.3c2,0,3.7-1.6,3.7-3.7c0-2-1.6-3.7-3.7-3.7c-2,0-3.7,1.6-3.7,3.7
	C222.5,5.7,224.2,7.3,226.2,7.3"/>
<path opacity="0.4" fill="#FFFFFF" d="M226.2,44.4c2,0,3.7-1.6,3.7-3.7c0-2-1.6-3.7-3.7-3.7c-2,0-3.7,1.6-3.7,3.7
	C222.5,42.8,224.2,44.4,226.2,44.4"/>
<path opacity="0.4" fill="#FFFFFF" d="M226.2,81.5c2,0,3.7-1.6,3.7-3.7c0-2-1.6-3.7-3.7-3.7c-2,0-3.7,1.6-3.7,3.7
	C222.5,79.9,224.2,81.5,226.2,81.5"/>
<path opacity="0.4" fill="#FFFFFF" d="M226.2,118.6c2,0,3.7-1.6,3.7-3.7c0-2-1.6-3.7-3.7-3.7c-2,0-3.7,1.6-3.7,3.7
	C222.5,117,224.2,118.6,226.2,118.6"/>
<path opacity="0.4" fill="#FFFFFF" d="M226.2,155.7c2,0,3.7-1.6,3.7-3.7c0-2-1.6-3.7-3.7-3.7c-2,0-3.7,1.6-3.7,3.7
	C222.5,154.1,224.2,155.7,226.2,155.7"/>
<path opacity="0.4" fill="#FFFFFF" d="M264.4,7.3c2,0,3.7-1.6,3.7-3.7c0-2-1.6-3.7-3.7-3.7c-2,0-3.7,1.6-3.7,3.7
	C260.8,5.7,262.4,7.3,264.4,7.3"/>
<path opacity="0.4" fill="#FFFFFF" d="M264.4,44.4c2,0,3.7-1.6,3.7-3.7c0-2-1.6-3.7-3.7-3.7c-2,0-3.7,1.6-3.7,3.7
	C260.8,42.8,262.4,44.4,264.4,44.4"/>
<path opacity="0.4" fill="#FFFFFF" d="M264.4,81.5c2,0,3.7-1.6,3.7-3.7c0-2-1.6-3.7-3.7-3.7c-2,0-3.7,1.6-3.7,3.7
	C260.8,79.9,262.4,81.5,264.4,81.5"/>
<path opacity="0.4" fill="#FFFFFF" d="M264.4,118.6c2,0,3.7-1.6,3.7-3.7c0-2-1.6-3.7-3.7-3.7c-2,0-3.7,1.6-3.7,3.7
	C260.8,117,262.4,118.6,264.4,118.6"/>
<path opacity="0.4" fill="#FFFFFF" d="M264.4,155.7c2,0,3.7-1.6,3.7-3.7c0-2-1.6-3.7-3.7-3.7c-2,0-3.7,1.6-3.7,3.7
	C260.8,154.1,262.4,155.7,264.4,155.7"/>
<path opacity="0.4" fill="#FFFFFF" d="M301.5,7.3c2,0,3.7-1.6,3.7-3.7c0-2-1.6-3.7-3.7-3.7c-2,0-3.7,1.6-3.7,3.7
	C297.8,5.7,299.5,7.3,301.5,7.3"/>
<path opacity="0.4" fill="#FFFFFF" d="M301.5,44.4c2,0,3.7-1.6,3.7-3.7c0-2-1.6-3.7-3.7-3.7c-2,0-3.7,1.6-3.7,3.7
	C297.8,42.8,299.5,44.4,301.5,44.4"/>
<path opacity="0.4" fill="#FFFFFF" d="M301.5,81.5c2,0,3.7-1.6,3.7-3.7c0-2-1.6-3.7-3.7-3.7c-2,0-3.7,1.6-3.7,3.7
	C297.8,79.9,299.5,81.5,301.5,81.5"/>
<path opacity="0.4" fill="#FFFFFF" d="M301.5,118.6c2,0,3.7-1.6,3.7-3.7c0-2-1.6-3.7-3.7-3.7c-2,0-3.7,1.6-3.7,3.7
	C297.8,117,299.5,118.6,301.5,118.6"/>
<path opacity="0.4" fill="#FFFFFF" d="M301.5,155.7c2,0,3.7-1.6,3.7-3.7c0-2-1.6-3.7-3.7-3.7c-2,0-3.7,1.6-3.7,3.7
	C297.8,154.1,299.5,155.7,301.5,155.7"/>
<path opacity="0.4" fill="#FFFFFF" d="M338.6,7.3c2,0,3.7-1.6,3.7-3.7c0-2-1.6-3.7-3.7-3.7c-2,0-3.7,1.6-3.7,3.7
	C334.9,5.7,336.6,7.3,338.6,7.3"/>
<path opacity="0.4" fill="#FFFFFF" d="M338.6,44.4c2,0,3.7-1.6,3.7-3.7c0-2-1.6-3.7-3.7-3.7c-2,0-3.7,1.6-3.7,3.7
	C334.9,42.8,336.6,44.4,338.6,44.4"/>
<path opacity="0.4" fill="#FFFFFF" d="M338.6,81.5c2,0,3.7-1.6,3.7-3.7c0-2-1.6-3.7-3.7-3.7c-2,0-3.7,1.6-3.7,3.7
	C334.9,79.9,336.6,81.5,338.6,81.5"/>
<path opacity="0.4" fill="#FFFFFF" d="M338.6,118.6c2,0,3.7-1.6,3.7-3.7c0-2-1.6-3.7-3.7-3.7c-2,0-3.7,1.6-3.7,3.7
	C334.9,117,336.6,118.6,338.6,118.6"/>
<path opacity="0.4" fill="#FFFFFF" d="M338.6,155.7c2,0,3.7-1.6,3.7-3.7c0-2-1.6-3.7-3.7-3.7c-2,0-3.7,1.6-3.7,3.7
	C334.9,154.1,336.6,155.7,338.6,155.7"/>
<path opacity="0.4" fill="#FFFFFF" d="M375.7,7.3c2,0,3.7-1.6,3.7-3.7c0-2-1.6-3.7-3.7-3.7c-2,0-3.7,1.6-3.7,3.7
	C372,5.7,373.7,7.3,375.7,7.3"/>
<path opacity="0.4" fill="#FFFFFF" d="M375.7,44.4c2,0,3.7-1.6,3.7-3.7c0-2-1.6-3.7-3.7-3.7c-2,0-3.7,1.6-3.7,3.7
	C372,42.8,373.7,44.4,375.7,44.4"/>
<path opacity="0.4" fill="#FFFFFF" d="M375.7,81.5c2,0,3.7-1.6,3.7-3.7c0-2-1.6-3.7-3.7-3.7c-2,0-3.7,1.6-3.7,3.7
	C372,79.9,373.7,81.5,375.7,81.5"/>
<path opacity="0.4" fill="#FFFFFF" d="M375.7,118.6c2,0,3.7-1.6,3.7-3.7c0-2-1.6-3.7-3.7-3.7c-2,0-3.7,1.6-3.7,3.7
	C372,117,373.7,118.6,375.7,118.6"/>
<path opacity="0.4" fill="#FFFFFF" d="M375.7,155.7c2,0,3.7-1.6,3.7-3.7c0-2-1.6-3.7-3.7-3.7c-2,0-3.7,1.6-3.7,3.7
	C372,154.1,373.7,155.7,375.7,155.7"/>
<path opacity="0.4" fill="#FFFFFF" d="M412.8,7.3c2,0,3.7-1.6,3.7-3.7c0-2-1.6-3.7-3.7-3.7c-2,0-3.7,1.6-3.7,3.7
	C409.1,5.7,410.8,7.3,412.8,7.3"/>
<path opacity="0.4" fill="#FFFFFF" d="M412.8,44.4c2,0,3.7-1.6,3.7-3.7c0-2-1.6-3.7-3.7-3.7c-2,0-3.7,1.6-3.7,3.7
	C409.1,42.8,410.8,44.4,412.8,44.4"/>
<path opacity="0.4" fill="#FFFFFF" d="M412.8,81.5c2,0,3.7-1.6,3.7-3.7c0-2-1.6-3.7-3.7-3.7c-2,0-3.7,1.6-3.7,3.7
	C409.1,79.9,410.8,81.5,412.8,81.5"/>
<path opacity="0.4" fill="#FFFFFF" d="M412.8,118.6c2,0,3.7-1.6,3.7-3.7c0-2-1.6-3.7-3.7-3.7c-2,0-3.7,1.6-3.7,3.7
	C409.1,117,410.8,118.6,412.8,118.6"/>
<path opacity="0.4" fill="#FFFFFF" d="M412.8,155.7c2,0,3.7-1.6,3.7-3.7c0-2-1.6-3.7-3.7-3.7c-2,0-3.7,1.6-3.7,3.7
	C409.1,154.1,410.8,155.7,412.8,155.7"/>
</svg>
