<?xml version="1.0" encoding="utf-8"?>
<!-- Generator: Adobe Illustrator 18.0.0, SVG Export Plug-In . SVG Version: 6.00 Build 0)  -->
<!DOCTYPE svg PUBLIC "-//W3C//DTD SVG 1.1//EN" "http://www.w3.org/Graphics/SVG/1.1/DTD/svg11.dtd">
<svg version="1.1" id="Calque_1" xmlns="http://www.w3.org/2000/svg" xmlns:xlink="http://www.w3.org/1999/xlink" x="0px" y="0px"
	 viewBox="0 0 392.5 563" enable-background="new 0 0 392.5 563" xml:space="preserve">
<path fill="#664A9E" d="M131.3,24.2v16h6.9v-16H131.3z M145.1,24.2v16h6.9v-16H145.1z M126.8,51.7h43.4v-6.9h-43.4V51.7z
	 M158.8,24.2v16h6.9v-16H158.8z M148.5,3.6l-21.7,11.4v4.6h43.4v-4.6L148.5,3.6z"/>
<path fill="#E82264" d="M268.2,11c-0.2,0-0.4,0-0.5-0.1c-4.4-2.3-8.2-3.2-12.7-3.2c-4.5,0-8.8,1.1-12.7,3.2
	c-0.6,0.3-1.2,0.1-1.6-0.5c-0.3-0.6-0.1-1.2,0.5-1.6c4.3-2.3,8.9-3.5,13.8-3.5c4.9,0,9.1,1.1,13.8,3.5c0.6,0.3,0.8,1,0.5,1.5
	C269,10.8,268.6,11,268.2,11z M235.5,23c-0.2,0-0.5-0.1-0.7-0.2c-0.5-0.4-0.6-1.1-0.3-1.6c2.3-3.2,5.2-5.7,8.6-7.5
	c7.2-3.7,16.4-3.7,23.6,0c3.4,1.8,6.3,4.3,8.6,7.4c0.4,0.5,0.3,1.2-0.3,1.6c-0.5,0.4-1.2,0.3-1.6-0.3c-2.1-2.9-4.7-5.1-7.8-6.7
	c-6.6-3.4-14.9-3.4-21.5,0c-3.1,1.6-5.7,3.9-7.8,6.8C236.2,22.9,235.8,23,235.5,23z M249.8,50.6c-0.3,0-0.6-0.1-0.8-0.3
	c-2-2-3.1-3.3-4.6-6c-1.6-2.8-2.4-6.3-2.4-9.9c0-6.8,5.8-12.3,13-12.3c7.1,0,13,5.5,13,12.3c0,0.6-0.5,1.1-1.1,1.1s-1.1-0.5-1.1-1.1
	c0-5.5-4.8-10-10.7-10c-5.9,0-10.7,4.5-10.7,10c0,3.3,0.7,6.3,2.1,8.8c1.5,2.6,2.5,3.8,4.2,5.5c0.4,0.4,0.4,1.2,0,1.6
	C250.4,50.5,250.1,50.6,249.8,50.6z M266.2,46.4c-2.7,0-5.1-0.7-7.1-2c-3.4-2.3-5.4-6.1-5.4-10c0-0.6,0.5-1.1,1.1-1.1
	c0.6,0,1.1,0.5,1.1,1.1c0,3.2,1.7,6.3,4.4,8.1c1.6,1.1,3.5,1.6,5.8,1.6c0.5,0,1.5-0.1,2.4-0.2c0.6-0.1,1.2,0.3,1.3,0.9
	c0.1,0.6-0.3,1.2-0.9,1.3C267.6,46.4,266.5,46.4,266.2,46.4z M261.6,51.1c-0.1,0-0.2,0-0.3,0c-3.6-1-6-2.3-8.5-4.8
	c-3.2-3.2-4.9-7.4-4.9-11.9c0-3.7,3.2-6.7,7-6.7c3.9,0,7,3,7,6.7c0,2.4,2.1,4.4,4.8,4.4s4.8-2,4.8-4.4c0-8.6-7.4-15.6-16.6-15.6
	c-6.5,0-12.4,3.6-15.1,9.2c-0.9,1.9-1.3,4-1.3,6.4c0,1.8,0.2,4.6,1.5,8.2c0.2,0.6-0.1,1.2-0.7,1.5c-0.6,0.2-1.2-0.1-1.5-0.7
	c-1.1-3-1.7-6-1.7-9c0-2.7,0.5-5.2,1.6-7.4c3.1-6.4,9.8-10.5,17.2-10.5c10.4,0,18.9,8,18.9,17.9c0,3.7-3.2,6.7-7,6.7s-7-3-7-6.7
	c0-2.4-2.1-4.4-4.8-4.4c-2.6,0-4.8,2-4.8,4.4c0,3.9,1.5,7.6,4.3,10.3c2.2,2.1,4.3,3.3,7.5,4.2c0.6,0.2,1,0.8,0.8,1.4
	C262.5,50.8,262.1,51.1,261.6,51.1z"/>
<path fill="#904098" d="M373.9,18.5h-4.6v20.6h-29.7v4.6c0,1.3,1,2.3,2.3,2.3H367l9.1,9.1V20.8C376.2,19.5,375.1,18.5,373.9,18.5z
	 M364.7,32.2V11.6c0-1.3-1-2.3-2.3-2.3h-29.7c-1.3,0-2.3,1-2.3,2.3v32l9.1-9.1h22.9C363.7,34.5,364.7,33.5,364.7,32.2z"/>
<path fill="#EF4538" d="M36.5,24.2h-4.6v-16h-4.6v16h-4.6v-16h-4.6v16c0,4.8,3.8,8.8,8.6,9.1v20.6h5.7V33.3c4.8-0.3,8.6-4.2,8.6-9.1
	v-16h-4.6V24.2z M47.9,17.4v18.3h5.7v18.3h5.7V8.2C53.1,8.2,47.9,13.3,47.9,17.4z"/>
<path fill="#E82264" d="M268.2,127.8c-0.2,0-0.4,0-0.5-0.1c-4.4-2.3-8.2-3.2-12.7-3.2c-4.5,0-8.8,1.1-12.7,3.2
	c-0.6,0.3-1.2,0.1-1.6-0.5c-0.3-0.6-0.1-1.2,0.5-1.6c4.3-2.3,8.9-3.5,13.8-3.5c4.9,0,9.1,1.1,13.8,3.5c0.6,0.3,0.8,1,0.5,1.5
	C269,127.6,268.6,127.8,268.2,127.8z M235.5,139.8c-0.2,0-0.5-0.1-0.7-0.2c-0.5-0.4-0.6-1.1-0.3-1.6c2.3-3.2,5.2-5.7,8.6-7.5
	c7.2-3.7,16.4-3.7,23.6,0c3.4,1.8,6.3,4.3,8.6,7.4c0.4,0.5,0.3,1.2-0.3,1.6c-0.5,0.4-1.2,0.3-1.6-0.3c-2.1-2.9-4.7-5.1-7.8-6.7
	c-6.6-3.4-14.9-3.4-21.5,0c-3.1,1.6-5.7,3.9-7.8,6.8C236.2,139.7,235.8,139.8,235.5,139.8z M249.8,167.4c-0.3,0-0.6-0.1-0.8-0.3
	c-2-2-3.1-3.3-4.6-6c-1.6-2.8-2.4-6.3-2.4-9.9c0-6.8,5.8-12.3,13-12.3c7.1,0,13,5.5,13,12.3c0,0.6-0.5,1.1-1.1,1.1s-1.1-0.5-1.1-1.1
	c0-5.5-4.8-10-10.7-10c-5.9,0-10.7,4.5-10.7,10c0,3.3,0.7,6.3,2.1,8.8c1.5,2.6,2.5,3.8,4.2,5.5c0.4,0.4,0.4,1.2,0,1.6
	C250.4,167.3,250.1,167.4,249.8,167.4z M266.2,163.2c-2.7,0-5.1-0.7-7.1-2c-3.4-2.3-5.4-6.1-5.4-10c0-0.6,0.5-1.1,1.1-1.1
	c0.6,0,1.1,0.5,1.1,1.1c0,3.2,1.7,6.3,4.4,8.1c1.6,1.1,3.5,1.6,5.8,1.6c0.5,0,1.5-0.1,2.4-0.2c0.6-0.1,1.2,0.3,1.3,0.9
	s-0.3,1.2-0.9,1.3C267.6,163.2,266.5,163.2,266.2,163.2z M261.6,167.9c-0.1,0-0.2,0-0.3,0c-3.6-1-6-2.3-8.5-4.8
	c-3.2-3.2-4.9-7.4-4.9-11.9c0-3.7,3.2-6.7,7-6.7c3.9,0,7,3,7,6.7c0,2.4,2.1,4.4,4.8,4.4s4.8-2,4.8-4.4c0-8.6-7.4-15.6-16.6-15.6
	c-6.5,0-12.4,3.6-15.1,9.2c-0.9,1.9-1.3,4-1.3,6.4c0,1.8,0.2,4.6,1.5,8.2c0.2,0.6-0.1,1.2-0.7,1.5c-0.6,0.2-1.2-0.1-1.5-0.7
	c-1.1-3-1.7-6-1.7-9c0-2.7,0.5-5.2,1.6-7.4c3.1-6.4,9.8-10.5,17.2-10.5c10.4,0,18.9,8,18.9,17.9c0,3.7-3.2,6.7-7,6.7s-7-3-7-6.7
	c0-2.4-2.1-4.4-4.8-4.4c-2.6,0-4.8,2-4.8,4.4c0,3.9,1.5,7.6,4.3,10.3c2.2,2.1,4.3,3.3,7.5,4.2c0.6,0.2,1,0.8,0.8,1.4
	C262.5,167.6,262.1,167.9,261.6,167.9z"/>
<path fill="none" stroke="#904098" stroke-width="2.2863" stroke-miterlimit="10" d="M373.9,131.3h-4.6v20.6h-29.7v4.6
	c0,1.3,1,2.3,2.3,2.3H367l9.1,9.1v-34.3C376.2,132.4,375.1,131.3,373.9,131.3z M364.7,145.1v-20.6c0-1.3-1-2.3-2.3-2.3h-29.7
	c-1.3,0-2.3,1-2.3,2.3v32l9.1-9.1h22.9C363.7,147.3,364.7,146.3,364.7,145.1z"/>
<path fill="none" stroke="#664A9E" stroke-width="2.2863" stroke-miterlimit="10" d="M131.3,140.1v16h6.9v-16H131.3z M145.1,140.1
	v16h6.9v-16H145.1z M126.8,167.5h43.4v-6.9h-43.4V167.5z M158.8,140.1v16h6.9v-16H158.8z M148.5,119.5L126.8,131v4.6h43.4V131
	L148.5,119.5z"/>
<path fill="none" stroke="#EF4538" stroke-width="2.2863" stroke-miterlimit="10" d="M36.5,140.1h-4.6v-16h-4.6v16h-4.6v-16h-4.6v16
	c0,4.8,3.8,8.8,8.6,9.1v20.6h5.7v-20.6c4.8-0.3,8.6-4.2,8.6-9.1v-16h-4.6V140.1z M47.9,133.2v18.3h5.7v18.3h5.7v-45.7
	C53.1,124.1,47.9,129.2,47.9,133.2z"/>
<circle fill="#664A9E" cx="148.5" cy="524.3" r="37.1"/>
<circle fill="#E82264" cx="254.9" cy="524.3" r="37.1"/>
<circle fill="#904098" cx="352.8" cy="524.3" r="37.1"/>
<circle fill="#EF4538" cx="39.9" cy="524.3" r="37.1"/>
<path fill="#FFFFFF" d="M265.5,509.8c-0.1,0-0.3,0-0.4-0.1c-3.5-1.8-6.5-2.6-10.2-2.6c-3.6,0-7,0.9-10.2,2.6c-0.4,0.2-1,0.1-1.2-0.4
	c-0.2-0.4-0.1-1,0.4-1.2c3.4-1.8,7.1-2.8,11-2.8c3.9,0,7.3,0.9,11,2.8c0.4,0.2,0.6,0.8,0.4,1.2C266.2,509.6,265.8,509.8,265.5,509.8
	z M239.4,519.4c-0.2,0-0.4-0.1-0.5-0.2c-0.4-0.3-0.5-0.9-0.2-1.3c1.8-2.6,4.1-4.6,6.8-6c5.7-3,13.1-3,18.8,0c2.7,1.4,5,3.4,6.8,5.9
	c0.3,0.4,0.2,1-0.2,1.3s-1,0.2-1.3-0.2c-1.6-2.3-3.7-4.1-6.2-5.4c-5.2-2.7-11.9-2.7-17.1,0c-2.5,1.3-4.6,3.1-6.2,5.4
	C240,519.3,239.7,519.4,239.4,519.4z M250.8,541.4c-0.2,0-0.5-0.1-0.6-0.3c-1.6-1.6-2.4-2.6-3.7-4.8c-1.3-2.2-1.9-5-1.9-7.9
	c0-5.4,4.6-9.8,10.3-9.8s10.3,4.4,10.3,9.8c0,0.5-0.4,0.9-0.9,0.9c-0.5,0-0.9-0.4-0.9-0.9c0-4.4-3.8-8-8.5-8c-4.7,0-8.5,3.6-8.5,8
	c0,2.6,0.6,5,1.7,7c1.2,2.1,2,3,3.4,4.4c0.4,0.4,0.4,0.9,0,1.3C251.3,541.3,251.1,541.4,250.8,541.4z M263.9,538
	c-2.2,0-4.1-0.5-5.6-1.6c-2.7-1.8-4.3-4.8-4.3-8c0-0.5,0.4-0.9,0.9-0.9c0.5,0,0.9,0.4,0.9,0.9c0,2.6,1.3,5,3.5,6.5
	c1.3,0.9,2.8,1.3,4.6,1.3c0.4,0,1.2,0,1.9-0.2c0.5-0.1,1,0.2,1.1,0.7c0.1,0.5-0.2,1-0.7,1.1C265.1,538,264.1,538,263.9,538z
	 M260.2,541.8c-0.1,0-0.2,0-0.2,0c-2.9-0.8-4.8-1.9-6.8-3.8c-2.5-2.5-3.9-5.9-3.9-9.5c0-3,2.5-5.4,5.6-5.4c3.1,0,5.6,2.4,5.6,5.4
	c0,1.9,1.7,3.5,3.8,3.5s3.8-1.6,3.8-3.5c0-6.9-5.9-12.5-13.2-12.5c-5.2,0-9.9,2.9-12,7.3c-0.7,1.5-1.1,3.2-1.1,5.1
	c0,1.4,0.1,3.7,1.2,6.6c0.2,0.5-0.1,1-0.5,1.2c-0.5,0.2-1-0.1-1.2-0.5c-0.9-2.4-1.3-4.7-1.3-7.2c0-2.2,0.4-4.2,1.2-5.9
	c2.4-5.1,7.8-8.4,13.7-8.4c8.3,0,15,6.4,15,14.3c0,3-2.5,5.4-5.6,5.4c-3.1,0-5.6-2.4-5.6-5.4c0-1.9-1.7-3.5-3.8-3.5
	c-2.1,0-3.8,1.6-3.8,3.5c0,3.1,1.2,6,3.4,8.2c1.7,1.7,3.4,2.7,6,3.4c0.5,0.1,0.8,0.6,0.6,1.1C261,541.5,260.6,541.8,260.2,541.8z"/>
<path fill="#FFFFFF" d="M368.8,514.8h-3.7v16.6h-24v3.7c0,1,0.8,1.8,1.8,1.8h20.3l7.4,7.4v-27.7
	C370.6,515.6,369.8,514.8,368.8,514.8z M361.4,525.8v-16.6c0-1-0.8-1.8-1.8-1.8h-24c-1,0-1.8,0.8-1.8,1.8v25.8l7.4-7.4h18.5
	C360.6,527.7,361.4,526.8,361.4,525.8z"/>
<path fill="#FFFFFF" d="M134.5,519.2v13.1h5.6v-13.1H134.5z M145.7,519.2v13.1h5.6v-13.1H145.7z M130.7,541.7h35.6v-5.6h-35.6V541.7
	z M156.9,519.2v13.1h5.6v-13.1H156.9z M148.5,502.4l-17.8,9.4v3.7h35.6v-3.7L148.5,502.4z"/>
<path fill="#FFFFFF" d="M35.9,520.1h-3.6v-12.4h-3.6v12.4h-3.6v-12.4h-3.6v12.4c0,3.8,3,6.8,6.7,7.1v16.1h4.4v-16.1
	c3.7-0.2,6.7-3.3,6.7-7.1v-12.4h-3.6V520.1z M44.8,514.8V529h4.4v14.2h4.4v-35.6C48.7,507.7,44.8,511.7,44.8,514.8z"/>
<circle fill="none" stroke="#664A9E" stroke-width="2.2863" stroke-miterlimit="10" cx="148.5" cy="267.7" r="37.1"/>
<circle fill="none" stroke="#E82264" stroke-width="2.2863" stroke-miterlimit="10" cx="254.9" cy="267.7" r="37.1"/>
<circle fill="none" stroke="#904098" stroke-width="2.2863" stroke-miterlimit="10" cx="352.8" cy="267.7" r="37.1"/>
<circle fill="none" stroke="#E9453A" stroke-width="2.2863" stroke-miterlimit="10" cx="39.9" cy="267.7" r="37.1"/>
<path fill="#E82264" d="M268.2,249.8c-0.2,0-0.4,0-0.5-0.1c-4.4-2.3-8.2-3.2-12.7-3.2c-4.5,0-8.8,1.1-12.7,3.2
	c-0.6,0.3-1.2,0.1-1.6-0.5c-0.3-0.6-0.1-1.2,0.5-1.6c4.3-2.3,8.9-3.5,13.8-3.5c4.9,0,9.1,1.1,13.8,3.5c0.6,0.3,0.8,1,0.5,1.5
	C269,249.5,268.6,249.8,268.2,249.8z M235.5,261.8c-0.2,0-0.5-0.1-0.7-0.2c-0.5-0.4-0.6-1.1-0.3-1.6c2.3-3.2,5.2-5.7,8.6-7.5
	c7.2-3.7,16.4-3.7,23.6,0c3.4,1.8,6.3,4.3,8.6,7.4c0.4,0.5,0.3,1.2-0.3,1.6c-0.5,0.4-1.2,0.3-1.6-0.3c-2.1-2.9-4.7-5.1-7.8-6.7
	c-6.6-3.4-14.9-3.4-21.5,0c-3.1,1.6-5.7,3.9-7.8,6.8C236.2,261.6,235.8,261.8,235.5,261.8z M249.8,289.3c-0.3,0-0.6-0.1-0.8-0.3
	c-2-2-3.1-3.3-4.6-6c-1.6-2.8-2.4-6.3-2.4-9.9c0-6.8,5.8-12.3,13-12.3c7.1,0,13,5.5,13,12.3c0,0.6-0.5,1.1-1.1,1.1s-1.1-0.5-1.1-1.1
	c0-5.5-4.8-10-10.7-10c-5.9,0-10.7,4.5-10.7,10c0,3.3,0.7,6.3,2.1,8.8c1.5,2.6,2.5,3.8,4.2,5.5c0.4,0.4,0.4,1.2,0,1.6
	C250.4,289.2,250.1,289.3,249.8,289.3z M266.2,285.1c-2.7,0-5.1-0.7-7.1-2c-3.4-2.3-5.4-6.1-5.4-10c0-0.6,0.5-1.1,1.1-1.1
	c0.6,0,1.1,0.5,1.1,1.1c0,3.2,1.7,6.3,4.4,8.1c1.6,1.1,3.5,1.6,5.8,1.6c0.5,0,1.5-0.1,2.4-0.2c0.6-0.1,1.2,0.3,1.3,0.9
	s-0.3,1.2-0.9,1.3C267.6,285.1,266.5,285.1,266.2,285.1z M261.6,289.8c-0.1,0-0.2,0-0.3,0c-3.6-1-6-2.3-8.5-4.8
	c-3.2-3.2-4.9-7.4-4.9-11.9c0-3.7,3.2-6.7,7-6.7c3.9,0,7,3,7,6.7c0,2.4,2.1,4.4,4.8,4.4s4.8-2,4.8-4.4c0-8.6-7.4-15.6-16.6-15.6
	c-6.5,0-12.4,3.6-15.1,9.2c-0.9,1.9-1.3,4-1.3,6.4c0,1.8,0.2,4.6,1.5,8.2c0.2,0.6-0.1,1.2-0.7,1.5c-0.6,0.2-1.2-0.1-1.5-0.7
	c-1.1-3-1.7-6-1.7-9c0-2.7,0.5-5.2,1.6-7.4c3.1-6.4,9.8-10.5,17.2-10.5c10.4,0,18.9,8,18.9,17.9c0,3.7-3.2,6.7-7,6.7s-7-3-7-6.7
	c0-2.4-2.1-4.4-4.8-4.4c-2.6,0-4.8,2-4.8,4.4c0,3.9,1.5,7.6,4.3,10.3c2.2,2.1,4.3,3.3,7.5,4.2c0.6,0.2,1,0.8,0.8,1.4
	C262.5,289.5,262.1,289.8,261.6,289.8z"/>
<path fill="none" stroke="#904098" stroke-width="2.2863" stroke-miterlimit="10" d="M370.9,256.8h-4.2v18.7h-27.1v4.2
	c0,1.1,0.9,2.1,2.1,2.1h22.9l8.3,8.3v-31.2C373,257.7,372,256.8,370.9,256.8z M362.6,269.3v-18.7c0-1.1-0.9-2.1-2.1-2.1h-27.1
	c-1.1,0-2.1,0.9-2.1,2.1v29.1l8.3-8.3h20.8C361.6,271.3,362.6,270.4,362.6,269.3z"/>
<path fill="none" stroke="#664A9E" stroke-width="2.2863" stroke-miterlimit="10" d="M132.5,262.3v14.9h6.4v-14.9H132.5z
	 M145.3,262.3v14.9h6.4v-14.9H145.3z M128.3,287.8h40.4v-6.4h-40.4V287.8z M158.1,262.3v14.9h6.4v-14.9H158.1z M148.5,243.1
	l-20.2,10.6v4.3h40.4v-4.3L148.5,243.1z"/>
<path fill="none" stroke="#E9453A" stroke-width="2.2863" stroke-miterlimit="10" d="M35.6,262.6h-4.2v-14.7h-4.2v14.7H23v-14.7
	h-4.2v14.7c0,4.4,3.5,8,7.9,8.3v18.9h5.2v-18.9c4.4-0.3,7.9-3.9,7.9-8.3v-14.7h-4.2V262.6z M46,256.3v16.8h5.2v16.8h5.2v-41.9
	C50.7,247.9,46,252.6,46,256.3z"/>
<circle fill="none" stroke="#664A9E" stroke-width="2.2863" stroke-miterlimit="10" cx="148.5" cy="397.5" r="37.1"/>
<circle fill="none" stroke="#E82264" stroke-width="2.2863" stroke-miterlimit="10" cx="254.9" cy="397.5" r="37.1"/>
<circle fill="none" stroke="#904098" stroke-width="2.2863" stroke-miterlimit="10" cx="352.8" cy="397.5" r="37.1"/>
<circle fill="none" stroke="#E9453A" stroke-width="2.2863" stroke-miterlimit="10" cx="39.9" cy="397.5" r="37.1"/>
<path fill="#E82264" d="M268.2,379.5c-0.2,0-0.4,0-0.5-0.1c-4.4-2.3-8.2-3.2-12.7-3.2c-4.5,0-8.8,1.1-12.7,3.2
	c-0.6,0.3-1.2,0.1-1.6-0.5c-0.3-0.6-0.1-1.2,0.5-1.6c4.3-2.3,8.9-3.5,13.8-3.5c4.9,0,9.1,1.1,13.8,3.5c0.6,0.3,0.8,1,0.5,1.5
	C269,379.3,268.6,379.5,268.2,379.5z M235.5,391.5c-0.2,0-0.5-0.1-0.7-0.2c-0.5-0.4-0.6-1.1-0.3-1.6c2.3-3.2,5.2-5.7,8.6-7.5
	c7.2-3.7,16.4-3.7,23.6,0c3.4,1.8,6.3,4.3,8.6,7.4c0.4,0.5,0.3,1.2-0.3,1.6c-0.5,0.4-1.2,0.3-1.6-0.3c-2.1-2.9-4.7-5.1-7.8-6.7
	c-6.6-3.4-14.9-3.4-21.5,0c-3.1,1.6-5.7,3.9-7.8,6.8C236.2,391.3,235.8,391.5,235.5,391.5z M249.8,419.1c-0.3,0-0.6-0.1-0.8-0.3
	c-2-2-3.1-3.3-4.6-6c-1.6-2.8-2.4-6.3-2.4-9.9c0-6.8,5.8-12.3,13-12.3c7.1,0,13,5.5,13,12.3c0,0.6-0.5,1.1-1.1,1.1s-1.1-0.5-1.1-1.1
	c0-5.5-4.8-10-10.7-10c-5.9,0-10.7,4.5-10.7,10c0,3.3,0.7,6.3,2.1,8.8c1.5,2.6,2.5,3.8,4.2,5.5c0.4,0.4,0.4,1.2,0,1.6
	C250.4,419,250.1,419.1,249.8,419.1z M266.2,414.9c-2.7,0-5.1-0.7-7.1-2c-3.4-2.3-5.4-6.1-5.4-10c0-0.6,0.5-1.1,1.1-1.1
	c0.6,0,1.1,0.5,1.1,1.1c0,3.2,1.7,6.3,4.4,8.1c1.6,1.1,3.5,1.6,5.8,1.6c0.5,0,1.5-0.1,2.4-0.2c0.6-0.1,1.2,0.3,1.3,0.9
	s-0.3,1.2-0.9,1.3C267.6,414.8,266.5,414.9,266.2,414.9z M261.6,419.6c-0.1,0-0.2,0-0.3,0c-3.6-1-6-2.3-8.5-4.8
	c-3.2-3.2-4.9-7.4-4.9-11.9c0-3.7,3.2-6.7,7-6.7c3.9,0,7,3,7,6.7c0,2.4,2.1,4.4,4.8,4.4s4.8-2,4.8-4.4c0-8.6-7.4-15.6-16.6-15.6
	c-6.5,0-12.4,3.6-15.1,9.2c-0.9,1.9-1.3,4-1.3,6.4c0,1.8,0.2,4.6,1.5,8.2c0.2,0.6-0.1,1.2-0.7,1.5c-0.6,0.2-1.2-0.1-1.5-0.7
	c-1.1-3-1.7-6-1.7-9c0-2.7,0.5-5.2,1.6-7.4c3.1-6.4,9.8-10.5,17.2-10.5c10.4,0,18.9,8,18.9,17.9c0,3.7-3.2,6.7-7,6.7s-7-3-7-6.7
	c0-2.4-2.1-4.4-4.8-4.4c-2.6,0-4.8,2-4.8,4.4c0,3.9,1.5,7.6,4.3,10.3c2.2,2.1,4.3,3.3,7.5,4.2c0.6,0.2,1,0.8,0.8,1.4
	C262.5,419.2,262.1,419.6,261.6,419.6z"/>
<path fill="#904098" d="M370.9,386.5h-4.2v18.7h-27.1v4.2c0,1.1,0.9,2.1,2.1,2.1h22.9l8.3,8.3v-31.2
	C373,387.5,372,386.5,370.9,386.5z M362.6,399v-18.7c0-1.1-0.9-2.1-2.1-2.1h-27.1c-1.1,0-2.1,0.9-2.1,2.1v29.1l8.3-8.3h20.8
	C361.6,401.1,362.6,400.1,362.6,399z"/>
<path fill="#664A9E" d="M132.5,392v14.9h6.4V392H132.5z M145.3,392v14.9h6.4V392H145.3z M128.3,417.5h40.4v-6.4h-40.4V417.5z
	 M158.1,392v14.9h6.4V392H158.1z M148.5,372.9l-20.2,10.6v4.3h40.4v-4.3L148.5,372.9z"/>
<path fill="#E9453A" d="M35.6,392.3h-4.2v-14.7h-4.2v14.7H23v-14.7h-4.2v14.7c0,4.4,3.5,8,7.9,8.3v18.9h5.2v-18.9
	c4.4-0.3,7.9-3.9,7.9-8.3v-14.7h-4.2V392.3z M46,386v16.8h5.2v16.8h5.2v-41.9C50.7,377.7,46,382.4,46,386z"/>
</svg>
