<?xml version="1.0" encoding="utf-8"?>
<!-- Generator: Adobe Illustrator 18.0.0, SVG Export Plug-In . SVG Version: 6.00 Build 0)  -->
<!DOCTYPE svg PUBLIC "-//W3C//DTD SVG 1.1//EN" "http://www.w3.org/Graphics/SVG/1.1/DTD/svg11.dtd">
<svg version="1.1" id="Calque_1" xmlns="http://www.w3.org/2000/svg" xmlns:xlink="http://www.w3.org/1999/xlink" x="0px" y="0px"
	 viewBox="0 0 195.7 194.7" enable-background="new 0 0 195.7 194.7" xml:space="preserve">
<circle fill="#E82264" cx="41.6" cy="40.2" r="39.9"/>
<g>
	
		<image overflow="visible" opacity="0.26" width="310" height="241" xlink:href="39D84AA1.png"  transform="matrix(0.24 0 0 0.24 2.9366 16.4356)">
	</image>
	<g>
		<g>
			<g>
				<polygon fill="#E2E4E5" points="18,44.5 67.9,22.9 21.1,58.6 				"/>
				<path fill="#CDCCCC" d="M67.2,23.2L21.1,58.4l-3.1-13.9L67.2,23.2 M68.5,22.5L17.9,44.5L21,58.7L68.5,22.5L68.5,22.5z"/>
			</g>
			<g>
				<polygon fill="#FFFFFF" points="10.1,35.5 67.6,22.8 17.9,44.3 				"/>
				<path fill="#CDCCCC" d="M66.7,23.1L17.9,44.2l-7.7-8.7L66.7,23.1 M68.5,22.5l-58.6,13l8,9L68.5,22.5L68.5,22.5z"/>
			</g>
			<g>
				<polygon fill="#D0D3D4" points="23.1,51 31.2,52.8 21.2,58.5 				"/>
				<path fill="#CDCCCC" d="M23.2,51.1l7.8,1.7l-9.7,5.5L23.2,51.1 M23.1,50.9l-2,7.8l10.4-5.9L23.1,50.9L23.1,50.9z"/>
			</g>
			<g>
				<polygon fill="#FFFFFF" points="23.2,50.9 68.2,22.8 38.9,64.4 				"/>
				<path fill="#CDCCCC" d="M67.8,23.1L38.9,64.3L23.4,50.9L67.8,23.1 M68.5,22.5L23.1,50.9L39,64.6L68.5,22.5L68.5,22.5z"/>
			</g>
		</g>
	</g>
</g>
<circle fill="#E82264" cx="148" cy="39.9" r="39.9"/>
<circle fill="#E82264" cx="41.7" cy="147.2" r="39.9"/>
<g>
	
		<image overflow="visible" opacity="0.26" width="202" height="202" xlink:href="39D84AA3.png"  transform="matrix(0.24 0 0 0.24 124.738 17.5179)">
	</image>
	<g>
		<g>
			<polygon fill="#D0D3D4" points="148,39.9 155.7,39.9 164.2,56.1 			"/>
			<polygon fill="#D0D3D4" points="148,39.9 148,32.2 164.2,23.7 			"/>
			<polygon fill="#D0D3D4" points="148,39.9 140.3,39.9 131.8,23.7 			"/>
			<g>
				<polygon fill="#FFFFFF" points="148,39.9 148,32.2 131.8,23.7 				"/>
			</g>
			<g>
				<polygon fill="#FFFFFF" points="148,39.9 140.3,39.9 131.8,56.1 				"/>
			</g>
			<g>
				<polygon fill="#FFFFFF" points="148,39.9 148,47.5 164.2,56.1 				"/>
			</g>
			<g>
				<polygon fill="#FFFFFF" points="148,39.9 155.7,39.9 164.2,23.7 				"/>
			</g>
			<polygon fill="#D0D3D4" points="148,39.9 148,47.5 131.8,56.1 			"/>
		</g>
	</g>
</g>
<g>
	
		<image overflow="visible" opacity="0.26" width="304" height="304" xlink:href="39D84AA6.png"  transform="matrix(0.24 0 0 0.24 112.4925 5.2725)">
	</image>
	<g>
		<g>
			<polygon fill="#D0D3D4" points="148,39.9 154.7,46.6 148,68.3 			"/>
			<polygon fill="#D0D3D4" points="148,39.9 154.7,33.2 176.4,39.9 			"/>
			<polygon fill="#D0D3D4" points="148,39.9 141.3,33.2 148,11.5 			"/>
			<g>
				<polygon fill="#FFFFFF" points="148,39.9 154.7,33.2 148,11.5 				"/>
			</g>
			<g>
				<polygon fill="#FFFFFF" points="148,39.9 141.3,33.2 119.6,39.9 				"/>
			</g>
			<g>
				<polygon fill="#FFFFFF" points="148,39.9 141.3,46.6 148,68.3 				"/>
			</g>
			<g>
				<polygon fill="#FFFFFF" points="148,39.9 154.7,46.6 176.4,39.9 				"/>
			</g>
			<polygon fill="#D0D3D4" points="148,39.9 141.3,46.6 119.6,39.9 			"/>
		</g>
	</g>
</g>
<rect x="103" y="101.1" opacity="7.000000e-002" fill="#FFFFFF" stroke="#010101" stroke-width="0.4979" stroke-miterlimit="10" width="91.6" height="92.6"/>
<circle fill="#E82264" cx="148.1" cy="147.2" r="39.9"/>
<path fill="#C21E5C" d="M148,107.3v79.8c22.1,0,40-17.9,40-39.9C188,125.2,170.1,107.3,148,107.3z"/>
<g>
	
		<image overflow="visible" opacity="0.45" width="368" height="368" xlink:href="39D84AA7.png"  transform="matrix(0.24 0 0 0.24 104.3528 108.7438)">
	</image>
	<g>
		<path fill="#FEEA3A" d="M177.6,146.8l-6.8-5.9l2.8-8.7l-8.8-1.7l-1.9-8.9l-8.5,2.9l-6.1-6.7l-5.9,6.7l-8.7-2.8l-1.7,8.8l-8.9,1.9
			l2.9,8.5l-6.7,6.1l6.7,5.9l-2.8,8.7l8.8,1.7l1.9,8.9l8.4-2.9l6.2,6.8l5.9-6.7l8.7,2.8l1.7-8.8l8.9-1.9l-2.9-8.4L177.6,146.8z
			 M148.5,168c-11.7,0-21.1-9.5-21.1-21.1s9.5-21.1,21.1-21.1s21.1,9.5,21.1,21.1S160.2,168,148.5,168z"/>
	</g>
</g>
<circle fill="#FEEA3A" cx="148.5" cy="146.9" r="18.4"/>
<g>
	
		<image overflow="visible" opacity="0.19" width="88" height="130" xlink:href="39D84AA2.png"  transform="matrix(0.24 0 0 0.24 139.2977 127.617)">
	</image>
	<g>
		<line fill="#FDD635" x1="148.8" y1="147.6" x2="148.8" y2="134.6"/>
		<line fill="none" stroke="#FFFFFF" stroke-width="3" stroke-miterlimit="10" x1="148.8" y1="147.6" x2="148.8" y2="134.6"/>
	</g>
</g>
<g>
	
		<image overflow="visible" opacity="0.19" width="125" height="88" xlink:href="39D84AAD.png"  transform="matrix(0.24 0 0 0.24 130.4612 139.0934)">
	</image>
	<g>
		<line fill="#FDD635" x1="138.5" y1="147.6" x2="150.3" y2="147.6"/>
		<line fill="none" stroke="#FFFFFF" stroke-width="3" stroke-miterlimit="10" x1="138.5" y1="147.6" x2="150.3" y2="147.6"/>
	</g>
</g>
<g>
	
		<image overflow="visible" opacity="0.1" width="368" height="368" xlink:href="39D84AAE.png"  transform="matrix(0.24 0 0 0.24 -2.743 107.0804)">
	</image>
	<g>
		<path fill="#FEEA3A" d="M70.6,147.2l-6.8-5.9l2.8-8.7l-8.8-1.7l-1.9-8.9l-8.5,2.9l-6.1-6.7l-5.9,6.7l-8.7-2.8l-1.7,8.8l-8.9,1.9
			l2.9,8.5l-6.7,6.1l6.7,5.9l-2.8,8.7l8.8,1.7l1.9,8.9l8.4-2.9l6.2,6.8l5.9-6.7l8.7,2.8l1.7-8.8l8.9-1.9l-2.9-8.4L70.6,147.2z
			 M41.4,168.3c-11.7,0-21.1-9.5-21.1-21.1s9.5-21.1,21.1-21.1s21.1,9.5,21.1,21.1S53.1,168.3,41.4,168.3z"/>
	</g>
</g>
<circle fill="#FEEA3A" cx="41.4" cy="147.2" r="18.4"/>
<g>
	
		<image overflow="visible" opacity="0.19" width="88" height="130" xlink:href="39D84AAF.png"  transform="matrix(0.24 0 0 0.24 32.2018 127.9535)">
	</image>
	<g>
		<line fill="#FDD635" x1="41.7" y1="147.9" x2="41.7" y2="135"/>
		<line fill="none" stroke="#FFFFFF" stroke-width="3" stroke-miterlimit="10" x1="41.7" y1="147.9" x2="41.7" y2="135"/>
	</g>
</g>
<g>
	
		<image overflow="visible" opacity="0.19" width="125" height="88" xlink:href="39D84AA4.png"  transform="matrix(0.24 0 0 0.24 23.3654 139.4299)">
	</image>
	<g>
		<line fill="#FDD635" x1="31.4" y1="147.9" x2="43.2" y2="147.9"/>
		<line fill="none" stroke="#FFFFFF" stroke-width="3" stroke-miterlimit="10" x1="31.4" y1="147.9" x2="43.2" y2="147.9"/>
	</g>
</g>
</svg>
