<svg xmlns="http://www.w3.org/2000/svg">
    <defs>
        <symbol id="rebootf" viewBox="0 0 90 115">
            <title>Reboot factory letter</title>
            <desc>This is the first letter of Reboot factory.</desc>
            <path fill="none" stroke="#EC008C" stroke-width="2" stroke-linecap="round" stroke-linejoin="round" stroke-miterlimit="10" d="M288.1,175.3v-33.5l31.9,0c0,0,15.8,2.8,16.3,20.7s-12.4,21.3-14.2,21.8s-52,0-52,0V126h52.5c0,0,28.5,5,31.8,33s-20.3,36.521.8,37.3c26.6,43.3,26.6,43.3,26.6,43.3h-20.4l-24.6-39.5h-26.3v39.5h-17.9v-39.5"/>
        </symbol>
        
        <symbol id="twitter" viewBox="0 0 50 40">
            <title>Twitter icon</title>
            <desc>This is a facebook icon.</desc>
            <path d="M49.22,4.735 C47.409,5.538 45.463,6.081 43.42,6.325 C45.505,5.075 47.106,3.096 47.86,0.738 C45.909,1.895 43.748,2.736 41.447,3.188 C39.606,1.226 36.981,0 34.077,0 C28.5,0 23.979,4.521 23.979,10.098 C23.979,10.889 24.068,11.66 24.24,12.399 C15.848,11.978 8.407,7.958 3.427,1.848 C2.557,3.34 2.059,5.074 2.059,6.925 C2.059,10.428 3.842,13.519 6.551,15.33 C4.896,15.277 3.339,14.823 1.977,14.067 C1.976,14.109 1.976,14.151 1.976,14.194 C1.976,19.087 5.457,23.168 10.076,24.096 C9.229,24.327 8.337,24.45 7.416,24.45 C6.765,24.45 6.133,24.387 5.516,24.269 C6.801,28.281 10.53,31.2 14.949,31.282 C11.493,33.991 7.139,35.605 2.408,35.605 C1.593,35.605 0.789,35.557 -0.001,35.464 C4.469,38.328 9.777,40 15.479,40 C34.053,40 44.21,24.613 44.21,11.269 C44.21,10.831 44.2,10.396 44.181,9.963 C46.154,8.538 47.866,6.76 49.22,4.735 Z"/>
        </symbol>
        
        <symbol id="linkedin" viewBox="0 0 40 40">
            <title>Linkedin icon</title>
            <desc>This is a Linkedin icon.</desc>
            <path d="M37.037,0 L2.953,0 C1.323,0 0,1.292 0,2.882 L0,37.114 C0,38.707 1.323,40 2.953,40 L37.038,40 C38.668,40 40,38.707 40,37.114 L40,2.882 C40,1.292 38.668,0 37.037,0 L37.037,0 Z M11.863,34.086 L5.928,34.086 L5.928,14.997 L11.863,14.997 L11.863,34.086 L11.863,34.086 Z M8.896,12.387 C6.994,12.387 5.457,10.845 5.457,8.946 C5.457,7.049 6.994,5.507 8.896,5.507 C10.793,5.507 12.334,7.049 12.334,8.946 C12.334,10.846 10.792,12.387 8.896,12.387 L8.896,12.387 Z M34.083,34.086 L28.157,34.086 L28.157,24.804 C28.157,22.589 28.114,19.742 25.073,19.742 C21.986,19.742 21.515,22.154 21.515,24.644 L21.515,34.087 L15.584,34.087 L15.584,14.997 L21.276,14.997 L21.276,17.604 L21.357,17.604 C22.149,16.104 24.085,14.521 26.971,14.521 C32.974,14.521 34.083,18.474 34.083,23.615 L34.083,34.086 L34.083,34.086 Z"/>
        </symbol>
    </defs>
</svg>