<?xml version="1.0" encoding="utf-8"?>
<!-- Generator: Adobe Illustrator 18.0.0, SVG Export Plug-In . SVG Version: 6.00 Build 0)  -->
<!DOCTYPE svg PUBLIC "-//W3C//DTD SVG 1.1//EN" "http://www.w3.org/Graphics/SVG/1.1/DTD/svg11.dtd">
<svg version="1.1" id="Capa_1" xmlns="http://www.w3.org/2000/svg" xmlns:xlink="http://www.w3.org/1999/xlink" x="0px" y="0px"
	 viewBox="0 0 841.9 595.3" enable-background="new 0 0 841.9 595.3" xml:space="preserve">
<g>
	<g>
		<path fill="#010002" d="M718.6,113.1c-21.9,9.7-45.4,16.3-70.1,19.2c25.2-15.1,44.5-39.1,53.7-67.5c-23.7,14-49.8,24.1-77.6,29.6
			c-22.3-23.8-54-38.6-89.1-38.6c-67.4,0-122.1,54.7-122.1,122.1c0,9.6,1.1,18.9,3.2,27.8C315,200.7,225,152.1,164.8,78.2
			c-10.5,18-16.5,39-16.5,61.4c0,42.4,21.6,79.8,54.3,101.6c-20-0.7-38.8-6.2-55.3-15.3v1.5c0,59.1,42.1,108.5,97.9,119.7
			c-10.2,2.8-21,4.3-32.2,4.3c-7.9,0-15.5-0.8-23-2.3c15.5,48.5,60.6,83.8,114,84.8c-41.8,32.7-94.4,52.2-151.7,52.2
			c-9.9,0-19.6-0.6-29.1-1.7c54,34.7,118.2,54.9,187.2,54.9c224.6,0,347.4-186.1,347.4-347.4l-0.4-15.8
			C681.5,159.1,702.3,137.6,718.6,113.1z"/>
	</g>
</g>
</svg>
